<?xml version="1.0" encoding="iso-8859-1"?>
<!-- Generator: Adobe Illustrator 16.0.0, SVG Export Plug-In . SVG Version: 6.00 Build 0)  -->
<!DOCTYPE svg PUBLIC "-//W3C//DTD SVG 1.1//EN" "http://www.w3.org/Graphics/SVG/1.1/DTD/svg11.dtd">
<svg version="1.1" xmlns="http://www.w3.org/2000/svg" xmlns:xlink="http://www.w3.org/1999/xlink" x="0px" y="0px" width="1080px"
	 height="1080px" viewBox="0 0 1080 1080" style="enable-background:new 0 0 1080 1080;" xml:space="preserve">
<g id="Warstwa_2">
	<g>
		<path style="fill-rule:evenodd;clip-rule:evenodd;fill:#FFFFFF;" d="M980.134,737.154c-4.891,8.328-9.586,16.779-14.718,24.955
			c-8.268,13.174-17.358,25.798-27.4,37.672c-6.752,7.982-14.043,15.511-21.112,23.224c-0.603,0.658-1.35,1.186-2.343,2.045
			c-21.203-18.219-42.408-36.439-63.975-54.971c-11.047,12.665-22.74,24.936-35.338,36.308
			c-12.617,11.39-25.901,21.956-39.748,31.75c15.848,24.139,31.528,48.024,47.343,72.112c-0.889,0.606-1.47,1.088-2.122,1.434
			c-11.914,6.313-23.798,12.686-35.77,18.888c-10.382,5.377-20.794,10.706-31.328,15.775c-8.104,3.9-16.367,7.479-24.657,10.968
			c-3.497,1.472-7.236,2.374-10.884,3.473c-0.938,0.282-1.945,0.328-3.29,0.541c-8.028-25.928-16.001-51.676-24.096-77.82
			c-30.854,11.936-62.701,19.935-95.928,24.176c4.067,26.785,7.229,53.359,10.788,80.126c-39.985,5.078-79.4,6.181-119.31-0.036
			c3.422-26.694,6.812-53.131,10.234-79.826c-15.894-2.048-31.822-4.801-47.544-8.658c-15.74-3.862-31.214-8.586-46.765-14.462
			c-8.795,23.619-17.533,47.083-26.309,70.648c-3.368,0.557-6.565-0.104-9.723-0.711c-10.104-1.948-19.728-5.377-29.008-9.779
			c-5.781-2.74-11.63-5.375-17.237-8.445c-12.334-6.753-24.299-14.13-35.818-22.207c-6.072-4.258-12.071-8.618-18.1-12.937
			c-0.458-0.328-0.873-0.716-1.338-1.033c-1.444-0.982-1.443-2.024-0.406-3.389c4.357-5.741,8.646-11.533,12.961-17.306
			c10.583-14.155,21.168-28.309,31.744-42.469c0.331-0.442,0.569-0.953,1.062-1.79c-25.621-18.588-48.962-39.635-69.782-63.774
			c-19.819,16.959-39.536,33.832-59.563,50.968c-2.079-2.339-4.191-4.607-6.186-6.977c-10.878-12.921-21.193-26.288-30.761-40.2
			c-7.462-10.853-14.496-22.008-20.429-33.793c-2.877-5.716-5.464-11.579-8.381-17.799c23.044-12.248,45.84-24.365,68.996-36.674
			c-14.942-30.163-25.924-61.602-33.018-94.728c-26.007,5.835-51.805,11.622-77.915,17.48
			c-6.189-28.045-10.544-56.082-12.552-84.472c-0.65-9.185-0.698-18.378-0.234-27.842c27.067,0.375,53.737,0.744,80.726,1.118
			c0.304-3.586,0.614-7.122,0.901-10.661c1.077-13.322,2.274-26.63,4.452-39.828c1.81-10.97,3.487-21.966,5.594-32.879
			c1.34-6.937,3.358-13.743,5.185-21.061c-26.125-7.346-52.377-14.729-78.987-22.211c0.166-1.088,0.269-2.161,0.498-3.207
			c2.022-9.24,4.731-18.286,8.052-27.134c3.871-10.312,7.637-20.677,11.948-30.806c4.8-11.279,10.155-22.324,15.285-33.463
			c1.172-2.544,2.413-5.057,3.837-8.034c47.121,24.637,93.949,49.277,140.962,73.873c-2.333,4.496-4.526,8.766-6.758,13.015
			c-5.977,11.379-11.026,23.165-15.426,35.232c-6.026,16.527-10.746,33.43-13.805,50.749c-1.64,9.284-2.67,18.678-3.888,28.034
			c-1.823,14.007-1.534,28.101-1.298,42.165c0.241,14.398,1.908,28.701,4.314,42.896c4.095,24.164,10.74,47.607,20.071,70.286
			c7.519,18.273,16.598,35.728,27.145,52.433c9.581,15.177,20.434,29.402,32.343,42.803c15.687,17.649,33.15,33.386,52.173,47.368
			c16.193,11.901,33.289,22.338,51.356,31.158c24.182,11.805,49.407,20.617,75.716,26.296c14.189,3.062,28.522,5.064,42.99,6.347
			c13.043,1.155,26.104,1.434,39.138,0.944c20.919-0.785,41.613-3.568,62.044-8.338c26.567-6.201,51.956-15.541,76.102-28.186
			c22.741-11.909,43.753-26.364,62.953-43.452c16.034-14.271,30.529-29.936,43.413-47.09c10.369-13.805,19.623-28.323,27.559-43.67
			c0.413-0.799,0.848-1.59,1.304-2.365c0.103-0.174,0.341-0.269,0.748-0.572c5.056,2.643,10.241,5.303,15.38,8.049
			c19.939,10.657,39.874,21.326,59.793,32.022c21.312,11.444,42.6,22.931,63.908,34.381c1.372,0.737,2.821,1.331,4.235,1.991
			C980.134,736.251,980.134,736.703,980.134,737.154z"/>
		<path style="fill-rule:evenodd;clip-rule:evenodd;fill:#FFFFFF;" d="M268.96,272.917c4.088,3.27,7.924,6.337,11.978,9.578
			c5.084-6.285,10.021-12.388,14.949-18.479c-0.592-0.86-1.762-1.828-1.858-2.894c-0.108-1.195,0.718-2.493,1.212-3.716
			c0.251-0.621,0.639-1.191,1.008-1.757c2.312-3.542,2.023-4.131,6.636-3.05c3.989,0.935,6.903-0.908,8.324-4.596
			c1.287-3.343,0.049-7.173-2.985-9.237c-1.725-1.173-3.659-1.194-5.52-0.663c-2.042,0.583-4.058,1.353-5.966,2.285
			c-3.9,1.904-8.028,3.407-12.292,3.229c-8.825-0.367-15.645-4.038-19.557-13.524c-2.054-4.98-2.25-10.125-0.448-15.189
			c2.302-6.473,7.215-9.951,13.872-10.802c4.172-0.534,8.313,0.051,12.192,1.9c2.883,1.375,3.4,2.849,1.834,5.658
			c-0.712,1.278-1.554,2.483-2.341,3.719c-1.412,2.22-2.103,2.518-4.712,2.043c-0.989-0.18-1.977-0.493-2.969-0.51
			c-3.582-0.063-6.174,2.646-6.056,6.218c0.169,5.121,5.197,8.834,10.127,7.311c2.461-0.76,4.815-1.881,7.19-2.902
			c4.572-1.964,9.335-2.527,14.228-1.889c8.487,1.107,15.508,8.396,16.691,17.152c0.471,3.49,0.242,6.893-0.724,10.292
			c-2.457,8.649-10.148,12.103-16.321,12.486c-2.014,0.125-4.042,0.02-6.754,0.02c1.429,1.272,2.525,2.247,3.62,3.224
			c2.147,1.917,2.406,3.251,0.627,5.497c-6.221,7.853-12.486,15.671-18.848,23.409c-0.837,1.019-2.337,1.495-3.295,2.079
			c-0.612,1.576-0.991,3.218-1.823,4.584c-6.213,10.195-12.501,20.345-18.817,30.478c-0.565,0.907-1.348,1.955-2.27,2.305
			c-1.729,0.656-2.864-0.408-3.803-1.929c-3.848-6.229-7.794-12.396-11.709-18.583c-6.023-9.519-12.049-19.036-18.085-28.547
			c-0.478-0.753-1.042-1.451-1.771-2.458c-2.666,4.285-5.213,8.369-7.748,12.459c-1.186,1.915-2.331,3.854-3.521,5.766
			c-1.528,2.453-3.033,2.809-5.632,1.313c-1.366-0.786-2.708-1.617-4.038-2.464c-2.944-1.876-3.3-3.308-1.427-6.417
			c2.79-4.631,5.65-9.219,8.495-13.816c3.379-5.459,6.778-10.906,10.162-16.361c2.283-3.679,4.092-3.715,6.333-0.158
			c9.847,15.629,19.705,31.253,29.567,46.874c0.475,0.753,1.036,1.452,1.771,2.474c2.436-3.907,4.747-7.597,7.041-11.298
			c1.305-2.106,2.575-4.233,3.875-6.342c2.206-3.573,2.447-3.666,7.264-2.395c-2.318-1.936-4.038-3.42-5.807-4.843
			c-12.721-10.229-25.452-20.445-38.179-30.666c-0.615-0.494-1.243-0.974-1.837-1.491c-2.199-1.917-2.381-3.071-0.594-5.487
			c1.739-2.352,3.623-4.597,5.453-6.881c4.293-5.359,8.579-10.725,12.895-16.066c2.186-2.706,3.501-2.881,6.251-0.835
			c1.443,1.075,2.831,2.23,4.2,3.399c2.05,1.75,2.289,3.061,0.674,5.212c-2.162,2.879-4.489,5.635-6.742,8.446
			c-2.174,2.712-4.344,5.428-6.776,8.467c3.967,3.22,7.779,6.314,11.774,9.557c0.621-0.589,1.216-1.048,1.683-1.614
			c2.649-3.215,5.231-6.486,7.909-9.676c2.155-2.569,3.26-2.671,5.945-0.656c1.439,1.08,2.834,2.226,4.184,3.415
			c1.924,1.694,2.094,3.503,0.469,5.587c-2.629,3.374-5.333,6.689-7.998,10.036C269.825,271.632,269.528,272.107,268.96,272.917z"/>
		<path style="fill-rule:evenodd;clip-rule:evenodd;fill:#FFFFFF;" d="M659.548,137.465c-0.365,14.089-5.772,25.43-18.16,32.927
			c-12.232,7.401-29.282,4.453-38.035-8.899c-10.871-16.584-5.835-41.271,11.125-52.25c13.977-9.049,32.781-4.863,40.875,11.004
			C658.106,125.645,659.899,131.266,659.548,137.465z M627.467,162.737c3.835,0.338,7.395-0.911,10.575-3.246
			c1.532-1.125,2.992-2.384,4.328-3.738c8.398-8.506,9.285-23.152,2.023-32.566c-5.842-7.574-15.472-9.458-23.851-4.82
			c-12.028,6.658-14.88,22.1-11.128,31.365C612.721,157.888,619.744,163.295,627.467,162.737z"/>
		<path style="fill-rule:evenodd;clip-rule:evenodd;fill:#FFFFFF;" d="M379.81,208.316c-8.905-0.284-16.095-2.947-22.189-8.182
			c-9.224-7.925-14.213-18.125-14.022-30.237c0.174-11.004,4.16-20.517,14.303-26.324c5.62-3.217,11.615-4.551,18.165-3.459
			c15.952,2.66,26.764,14.75,30.282,29.159c1.785,7.314,1.065,14.467-1.637,21.471C400.694,201.16,390.628,207.986,379.81,208.316z
			 M354.084,170.383c-0.063,12.07,7.875,22.769,18.408,25.874c9.896,2.917,20.057-2.83,23.125-12.678
			c3.722-11.949-2.825-25.81-14.36-30.775c-7.393-3.183-14.491-2.629-20.758,2.906C355.771,159.884,354.331,165.426,354.084,170.383
			z"/>
		<path style="fill-rule:evenodd;clip-rule:evenodd;fill:#FFFFFF;" d="M328.979,221.58c3.406,4.432,6.619,8.612,9.831,12.794
			c0.48,0.624,1.018,1.215,1.417,1.888c0.983,1.658,0.754,3.19-0.713,4.468c-1.271,1.107-2.594,2.162-3.955,3.156
			c-2.493,1.821-3.777,1.681-5.708-0.767c-3.764-4.768-7.464-9.587-11.176-14.397c-8.658-11.223-17.291-22.466-25.968-33.674
			c-3.869-4.998-3.843-5.475,1.202-9.334c3.485-2.666,7.161-5.118,10.424-8.032c10.479-9.361,26.644-5.501,34.319,4.614
			c5.357,7.059,6.729,14.829,4.716,23.276c-0.937,3.934-3.101,7.211-6.326,9.726C334.473,217.3,331.904,219.301,328.979,221.58z
			 M320.69,210.892c2.979-2.344,5.692-4.354,8.258-6.537c1.979-1.684,2.877-3.902,2.823-6.587c-0.11-5.444-3.951-10.384-9.51-12.222
			c-2.57-0.849-4.943-0.544-7.069,0.938c-2.76,1.924-5.369,4.062-8.356,6.348C311.432,198.824,315.93,204.687,320.69,210.892z"/>
		<path style="fill-rule:evenodd;clip-rule:evenodd;fill:#FFFFFF;" d="M921.923,489.007c-13.719-0.334-27.437-0.668-41.457-1.01
			c-0.69-2.901-0.36-5.694-0.268-8.452c0.04-1.213,0.974-1.691,2.136-1.662c5.965,0.146,11.931,0.291,17.895,0.452
			c0.784,0.021,1.564,0.189,2.348,0.198c7.777,0.089,15.555,0.098,23.329,0.251c7.312,0.145,14.622,0.432,21.932,0.671
			c0.543,0.018,1.081,0.155,1.523,0.222c0.991,1.528-0.063,2.133-0.958,2.842c-5.114,4.059-10.212,8.14-15.324,12.2
			c-8.374,6.65-16.758,13.289-25.131,19.94c-0.429,0.34-0.804,0.75-1.561,1.463c1.046,0.235,1.713,0.504,2.385,0.519
			c12.046,0.251,24.093,0.479,36.14,0.692c3.745,0.066,4.091,0.329,3.955,4.081c-0.067,1.88-0.412,3.751-0.688,6.097
			c-23.35-0.279-46.512-0.895-69.639-1.509c-0.251-2.225,1.025-2.781,1.941-3.501c9.74-7.647,19.502-15.265,29.258-22.893
			c3.636-2.843,7.263-5.699,10.913-8.522c0.603-0.466,1.307-0.8,1.963-1.194C922.385,489.597,922.154,489.302,921.923,489.007z"/>
		<path style="fill-rule:evenodd;clip-rule:evenodd;fill:#FFFFFF;" d="M877.571,317.24c-13.019,6.486-25.368,12.639-38.047,18.955
			c-1.981-2.674-3.255-5.57-4.628-8.884c20.691-10.663,41.432-20.631,61.898-30.85c1.441,1.343,0.717,2.334,0.272,3.343
			c-4.17,9.476-8.327,18.958-12.502,28.432c-2.632,5.971-5.293,11.93-7.925,17.901c-0.395,0.894-0.696,1.829-1.233,3.257
			c1.458-0.641,2.457-1.031,3.412-1.508c10.381-5.178,20.756-10.37,31.132-15.559c0.705-0.352,1.391-0.751,2.119-1.046
			c1.064-0.431,1.949-0.308,2.516,0.881c1.103,2.315,2.264,4.604,3.604,7.315c-20.986,10.583-41.766,20.931-62.512,31.273
			c-1.352-1.846-0.439-3.024,0.088-4.203c6.95-15.506,13.916-31.004,20.866-46.51C876.929,319.375,877.102,318.656,877.571,317.24z"
			/>
		<path style="fill-rule:evenodd;clip-rule:evenodd;fill:#FFFFFF;" d="M863.713,248.492c1.835,2.572,3.526,4.773,5.02,7.101
			c0.851,1.327-0.35,1.99-1.287,2.646c-4.057,2.843-8.107,5.695-12.153,8.552c-3.029,2.139-6.049,4.291-9.308,6.603
			c4.54,6.436,8.99,12.745,13.584,19.258c7.923-5.56,15.621-10.961,23.648-16.593c1.99,2.816,3.77,5.333,5.815,8.226
			c-18.895,13.336-37.429,26.418-56.23,39.688c-2.309-2.504-3.954-5.106-5.792-8.088c7.527-5.859,15.505-10.882,23.324-16.805
			c-4.479-6.363-8.902-12.646-13.518-19.203c-7.969,5.583-15.66,10.973-23.649,16.569c-1.988-2.769-3.731-5.195-5.737-7.989
			c6.107-4.96,12.547-9.036,18.705-13.481c6.115-4.415,12.328-8.696,18.495-13.039C850.864,257.548,857.095,253.155,863.713,248.492
			z"/>
		<path style="fill-rule:evenodd;clip-rule:evenodd;fill:#FFFFFF;" d="M919.196,645.968c-1.648,3.329-2.968,5.993-4.45,8.987
			c-8.779-4.246-17.166-8.302-25.973-12.561c-3.392,6.941-6.774,13.861-10.34,21.158c4.545,2.244,8.936,4.413,13.328,6.58
			c3.535,1.744,7.063,3.505,10.612,5.22c1.024,0.494,1.82,1.112,1.281,2.323c-1.085,2.439-2.278,4.831-3.569,7.541
			c-1.673-0.709-3.019-1.206-4.301-1.833c-16.193-7.913-32.375-15.849-48.563-23.769c-2.327-1.139-4.658-2.271-7.025-3.321
			c-1.522-0.675-2.106-1.642-1.334-3.19c1.096-2.2,2.232-4.379,3.549-6.953c8.703,4.198,17.174,8.285,25.947,12.517
			c3.453-7.094,6.831-14.034,10.32-21.202c-8.738-4.287-17.18-8.43-25.902-12.709c1.504-3.182,2.816-5.959,4.293-9.084
			C877.916,625.837,898.313,635.784,919.196,645.968z"/>
		<path style="fill-rule:evenodd;clip-rule:evenodd;fill:#FFFFFF;" d="M599.006,168.271c-4.148-0.347-7.369-0.52-10.553-0.959
			c-0.672-0.093-1.4-1.065-1.775-1.8c-2.206-4.307-4.316-8.664-6.458-13.004c-2.092-4.239-4.176-8.482-6.284-12.713
			c-0.232-0.465-0.609-0.857-1.392-1.933c-0.897,9.474-1.727,18.234-2.582,27.27c-3.015,0.591-5.86,0.266-8.685-0.42
			c-1.294-0.314-1.335-1.421-1.235-2.447c0.777-8.036,1.619-16.066,2.375-24.104c0.6-6.372,1.092-12.753,1.658-19.128
			c0.615-6.93,1.257-13.858,1.903-20.786c0.051-0.542,0.228-1.073,0.33-1.536c3.078-0.7,6.456-0.484,9.798,0.712
			c-0.816,9.275-1.646,18.686-2.538,28.834c0.874-1.007,1.354-1.432,1.68-1.953c4.841-7.725,9.744-15.412,14.433-23.229
			c1.281-2.136,2.682-3.058,5.127-2.632c2.291,0.398,4.617,0.592,7.525,0.949c-0.679,1.561-1.043,2.795-1.699,3.849
			c-5.055,8.122-9.924,16.376-15.362,24.235c-2.661,3.843-2.761,6.763-0.522,10.862c4.633,8.485,8.604,17.333,12.819,26.045
			C598.031,165.339,598.315,166.381,599.006,168.271z"/>
		<path style="fill-rule:evenodd;clip-rule:evenodd;fill:#FFFFFF;" d="M815.078,197.139c-2.198,2.762-4.277,5.374-6.609,8.305
			c-6.898-4.828-12.906-10.401-19.788-15.479c-4.101,4.184-7.375,8.983-11.248,13.6c3.753,3.066,7.389,6.041,11.03,9.009
			c0.696,0.568,1.425,1.096,2.119,1.668c0.901,0.744,1.221,1.625,0.434,2.635c-1.59,2.04-3.164,4.095-4.824,6.076
			c-0.973,1.16-1.965,0.6-2.93-0.178c-3.239-2.611-6.505-5.191-9.758-7.786c-0.958-0.763-1.911-1.532-3.166-2.54
			c-3.725,4.593-7.368,9.087-11.185,13.795c4.3,3.493,8.377,6.814,12.464,10.123c1.747,1.416,3.55,2.766,5.262,4.224
			c1.705,1.452,1.744,1.848,0.386,3.593c-1.648,2.12-3.377,4.179-5.355,6.615c-9.455-7.011-18.141-14.58-27.428-21.791
			c0.544-0.965,0.872-1.789,1.402-2.45c13.22-16.499,26.455-32.986,39.708-49.458c1.709-2.124,2.368-2.291,4.148-0.869
			c8.084,6.456,16.122,12.97,24.166,19.477C814.243,195.981,814.471,196.388,815.078,197.139z"/>
		<path style="fill-rule:evenodd;clip-rule:evenodd;fill:#FFFFFF;" d="M539.947,107.469c-4.77,0-9.143-0.055-13.513,0.017
			c-3.598,0.059-7.192,0.286-10.79,0.397c-1.026,0.032-1.729-0.472-1.812-1.579c-0.178-2.35-0.321-4.703-0.508-7.052
			c-0.121-1.516,0.58-2.352,2.044-2.559c0.887-0.125,1.783-0.222,2.678-0.252c11.919-0.393,23.839-0.769,35.759-1.155
			c1.927-0.063,2.445,0.731,1.55,2.792c-2.65,6.091-5.37,12.151-8.074,18.218c-5.178,11.616-10.369,23.225-15.535,34.846
			c-0.353,0.793-0.546,1.657-0.861,2.637c8.82,0.66,17.425-0.767,26.154-0.425c0.268,3.148,0.602,5.812,0.684,8.483
			c0.062,2.029-0.568,2.6-2.591,2.701c-2.699,0.135-5.403,0.167-8.105,0.242c-8.212,0.228-16.425,0.437-24.636,0.694
			c-1.791,0.056-3.575,0.353-5.366,0.397c-0.708,0.018-1.426-0.348-2.645-0.675C522.967,145.804,531.416,126.729,539.947,107.469z"
			/>
		<path style="fill-rule:evenodd;clip-rule:evenodd;fill:#FFFFFF;" d="M935.561,452.92c-1.048-8.739-2.057-17.155-3.089-25.76
			c3.832-0.835,7.163-1.607,11.019-1.152c0.911,7.087,1.952,14.056,2.669,21.057c0.7,6.835,2.333,13.604,2.144,21.184
			c-20.374-6.955-40.123-13.696-60.387-20.614c0.42,3.698,0.758,6.903,1.153,10.101c0.563,4.568,1.227,9.125,1.736,13.699
			c0.289,2.589-0.015,2.89-2.632,3.212c-2.53,0.312-5.072,0.537-7.978,0.837c-0.454-3.225-0.891-6.074-1.252-8.932
			c-1.282-10.141-2.574-20.281-3.784-30.43c-0.397-3.331,0.056-3.615,3.152-2.561c17.895,6.092,35.791,12.18,53.689,18.263
			C933.045,452.179,934.107,452.475,935.561,452.92z"/>
		<path style="fill-rule:evenodd;clip-rule:evenodd;fill:#FFFFFF;" d="M933.146,418.529c-3.188-1.596-6.069-3.039-9.1-4.556
			c0.538-1.479,0.93-2.622,1.368-3.745c3.087-7.927,0.139-17.52-8.509-22.53c-11.117-6.441-27.503-2.682-34.589,9.247
			c-4.841,8.15-2.984,18.462,4.422,24.22c2.655,2.064,2.65,2.105,0.792,4.802c-1.268,1.839-2.59,3.639-4.08,5.725
			c-1.097-0.594-2.104-1.028-2.993-1.637c-11.983-8.202-15.703-24.203-8.517-36.837c6.733-11.836,17.284-17.534,30.546-18.906
			c7.795-0.806,14.918,1.132,21.619,4.929c7.778,4.41,12.07,11.179,13.466,19.957c0.919,5.778-0.292,11.148-2.646,16.354
			C934.483,416.528,933.824,417.406,933.146,418.529z"/>
		<path style="fill-rule:evenodd;clip-rule:evenodd;fill:#FFFFFF;" d="M850.01,245.473c-3.191,0-6.297,0-9.899,0
			c-0.151-0.665-0.507-1.678-0.601-2.714c-0.827-9.071-8.479-15.974-17.576-16.456c-13.322-0.705-26.186,11.151-26.668,24.289
			c-0.367,9.995,6.228,18.239,16.108,19.727c0.649,0.098,1.294,0.228,2.125,0.375c0.563,3.458,0.143,6.722-0.677,10.241
			c-0.932,0.045-1.801,0.186-2.651,0.114c-17.066-1.441-28.265-16.735-25.352-33.999c2.75-16.293,18.009-31.112,36.569-31.754
			C837.892,214.724,851.806,228.892,850.01,245.473z"/>
		<path style="fill-rule:evenodd;clip-rule:evenodd;fill:#FFFFFF;" d="M910.043,623.752c1.072-0.844,1.743-1.418,2.459-1.928
			c7.555-5.377,10.019-14.65,5.968-23.013c-3.817-7.881-10.354-12.21-18.786-13.922c-6.887-1.397-13.159,0.103-18.852,4.114
			c-5.691,4.011-9.304,12.752-6.344,20.762c0.345,0.932,0.637,1.883,1.045,3.098c-2.583,1.826-5.486,2.725-8.254,3.825
			c-1.338,0.531-1.917-0.664-2.396-1.771c-3.455-7.964-3.608-15.888,0.086-23.836c4.431-9.536,12.486-14.354,22.254-16.299
			c13.014-2.59,24.6,1.186,34.265,10.031c6.234,5.704,10.077,13.113,10.375,21.684c0.239,6.91-2.046,13.36-6.738,18.582
			c-2.227,2.477-5.092,4.386-7.7,6.511c-1.22,0.992-2.266,0.728-3.066-0.625C912.988,628.655,911.602,626.355,910.043,623.752z"/>
		<path style="fill-rule:evenodd;clip-rule:evenodd;fill:#FFFFFF;" d="M505.307,113.582c-2.504,1.049-4.86,2.077-7.25,3.021
			c-1.049,0.415-1.867,0.101-2.615-0.875c-0.874-1.14-1.888-2.262-3.066-3.062c-2.421-1.646-5.157-1.453-7.533,0.268
			c-4.859,3.519-4.296,11.955,0.25,14.167c2.193,1.067,4.567,1.869,6.945,2.421c3.629,0.842,7.221,1.679,10.525,3.488
			c7.181,3.93,10.98,11.3,9.988,19.486c-1.027,8.471-6.736,15.154-14.64,17.087c-7.969,1.949-17.132-2.813-20.91-10.718
			c-0.682-1.427-0.334-2.361,1.143-2.918c0.948-0.357,1.926-0.673,2.805-1.163c2.699-1.505,4.772-1.856,7.074,1.19
			c1.962,2.596,5.28,3.508,8.572,1.956c3.26-1.537,5.363-4.108,5.648-7.809c0.287-3.714-1.609-6.311-4.851-7.753
			c-2.125-0.945-4.455-1.508-6.747-1.988c-4.325-0.907-8.535-1.982-12.112-4.792c-4.733-3.717-7.04-8.613-7.399-14.547
			c-0.259-4.271,0.605-8.25,2.641-12.028c4.915-9.117,16.003-11.32,24.094-5.944C501.915,105.757,504.309,109.027,505.307,113.582z"
			/>
		<path style="fill-rule:evenodd;clip-rule:evenodd;fill:#FFFFFF;" d="M666.212,158.78c-2.874,0.246-5.382,0.461-8.036,0.688
			c-0.084-2.827,1.163-4.746,2.106-6.727c0.231-0.487,1.033-0.818,1.638-0.988c0.964-0.271,1.997-0.54,2.977-0.473
			c3.66,0.254,5.285-1.651,6.476-4.927c3.039-8.351,6.423-16.576,9.694-24.842c1.184-2.993,1.234-2.99,4.135-1.883
			c1.577,0.602,3.156,1.197,4.724,1.823c1.126,0.45,1.537,1.251,1.072,2.425c-0.704,1.779-1.403,3.559-2.106,5.338
			c-2.275,5.755-4.558,11.508-6.822,17.267c-0.24,0.611-0.384,1.26-0.645,2.135c5.607-0.072,10.867-1.825,16.919-1.699
			c-1.015,2.598-1.688,4.707-2.688,6.647c-0.305,0.592-1.478,0.903-2.302,1.035c-4.988,0.792-9.989,1.495-15.374,2.284
			c-2.442,6.163-4.959,12.513-7.629,19.252c7.467,3.391,15.204,5.988,22.614,9.2c0.215,2.674-1.609,7.723-3.729,10.319
			c-0.786-0.248-1.647-0.464-2.468-0.787c-9.004-3.545-18.004-7.101-26.999-10.668c-2.834-1.124-2.932-1.33-1.809-4.204
			c2.335-5.974,4.71-11.932,7.057-17.901C665.412,161.088,665.753,160.06,666.212,158.78z"/>
		<path style="fill-rule:evenodd;clip-rule:evenodd;fill:#FFFFFF;" d="M416.666,163.328c-2.061,2.287-3.694,4.1-5.462,6.061
			c-2.082-1.787-2.256-4.207-2.863-6.388c-0.113-0.406,0.345-1.028,0.646-1.479c0.374-0.557,0.779-1.146,1.308-1.537
			c3.763-2.776,3.386-6.052,1.843-9.994c-2.951-7.536-5.463-15.245-8.146-22.886c-0.404-1.151-0.747-2.324-1.264-3.947
			c2.926-1.056,5.7-2.058,8.89-3.209c3.235,9.116,6.374,17.96,9.646,27.181c3.917-4.414,7.524-8.479,11.605-13.077
			c0.917,2.554,1.843,4.364,2.139,6.272c0.151,0.978-0.613,2.303-1.328,3.172c-2.855,3.473-5.854,6.827-8.794,10.23
			c-0.289,0.334-0.534,0.706-0.916,1.214c2.298,6.522,4.605,13.072,7.004,19.88c7.916-2.755,15.624-5.438,23.792-8.281
			c1.227,3.292,2.378,6.377,3.674,9.852c-10.908,4.194-21.753,7.737-32.954,11.736C422.546,179.862,419.705,171.871,416.666,163.328
			z"/>
		<path style="fill-rule:evenodd;clip-rule:evenodd;fill:#FFFFFF;" d="M938.436,584.529c-1.104-0.635-2.188-1.151-3.155-1.833
			c-9.762-6.876-19.476-13.82-29.282-20.633c-1.511-1.049-3.354-1.865-5.154-2.211c-7.837-1.504-15.717-2.786-23.577-4.166
			c-2.688-0.472-3.11-0.921-2.563-3.604c1.487-7.282-0.031-7.137,7.834-5.737c6.752,1.201,13.536,2.238,20.257,3.588
			c2.012,0.404,3.774,0.102,5.614-0.402c11.61-3.186,23.217-6.386,34.831-9.554c1.026-0.28,2.104-0.369,3.798-0.654
			c-0.608,3.624-0.998,6.701-1.729,9.695c-0.162,0.662-1.474,1.253-2.361,1.497c-6.616,1.822-13.261,3.546-19.895,5.309
			c-1.795,0.477-3.584,0.979-6.038,1.653c1.798,1.274,3.047,2.185,4.321,3.06c5.76,3.953,11.494,7.941,17.307,11.814
			c1.856,1.236,2.539,2.6,1.874,4.807C939.819,579.471,940.114,582.064,938.436,584.529z"/>
		<path style="fill-rule:evenodd;clip-rule:evenodd;fill:#FFFFFF;" d="M773.929,178.543c-4.644-2.885-8.73-5.425-13.141-8.165
			c-10.287,16.277-20.472,32.39-30.886,48.868c-2.979-1.846-5.585-3.46-8.59-5.322c10.422-16.558,20.583-32.699,30.847-49.004
			c-3.576-2.283-6.987-4.449-10.385-6.637c-2.519-1.622-2.589-1.894-0.968-4.495c1.297-2.082,2.667-4.118,4.186-6.453
			c1.588,0.907,2.955,1.623,4.257,2.441c9.146,5.754,18.278,11.529,27.414,17.299c0.571,0.36,1.147,0.716,1.691,1.113
			c0.833,0.609,1.173,1.447,0.618,2.356C777.407,173.115,775.769,175.639,773.929,178.543z"/>
		<path style="fill-rule:evenodd;clip-rule:evenodd;fill:#FFFFFF;" d="M860.504,383.214c-1.098-2.895-2.729-5.668-3.025-9.158
			c21.322-8.09,42.436-16.1,64.01-24.284c1.222,3.128,2.336,5.981,3.411,8.734C922.614,360.298,864.584,382.526,860.504,383.214z"/>
		<path style="fill-rule:evenodd;clip-rule:evenodd;fill:#FFFFFF;" d="M633.094,97.667c0.888-0.985,1.679-1.909,2.518-2.787
			c2.484-2.603,4.977-5.198,7.486-7.777c1.551-1.593,2.378-1.542,3.732,0.323c0.968,1.334,1.805,2.763,2.865,4.406
			c-3.31,2.312-6.33,4.423-9.354,6.531c-0.461,0.322-0.934,0.628-1.401,0.94C635.519,101.581,635.519,101.581,633.094,97.667z"/>
		<path style="fill-rule:evenodd;clip-rule:evenodd;fill:#FFFFFF;" d="M351.244,139.318c0.297-5.43,0.59-10.779,0.879-16.038
			c2.628-0.78,3.455-0.665,7.483,1.004c-0.055,0.776,0.008,1.672-0.202,2.498c-0.912,3.594-1.865,7.179-2.875,10.746
			C355.586,140.859,355.31,140.947,351.244,139.318z"/>
	</g>
</g>
<g id="Warstwa_3">
	<g>
		<g>
			<path style="fill-rule:evenodd;clip-rule:evenodd;fill:#C11E1E;" d="M626.563,700.383c-16.029,0.084-32.061,0.219-48.09,0.235
				c-32.695,0.034-65.393,0.007-98.09-0.008c-1.083,0-2.165-0.15-3.251-0.228c-0.077-2.184-0.212-4.364-0.213-6.546
				c-0.012-87.544-0.03-175.089-0.005-262.634c0.008-25.589,0.138-51.179,0.211-76.768c1.86-0.09,3.72-0.259,5.579-0.26
				c46.092-0.015,92.184-0.014,138.274,0c1.86,0,3.723,0.164,5.584,0.252c0.078,1.557,0.218,3.114,0.219,4.67
				c0.008,26.21,0.104,52.42-0.032,78.628c-0.135,26.088,0.153,52.176,0.076,78.266c-0.175,59.281-0.047,118.564-0.054,177.847
				C626.77,696.021,626.636,698.202,626.563,700.383z M551.471,429.993c16.531,0,33.059-0.073,49.591,0.063
				c3.178,0.026,4.476-0.884,4.423-4.166c-0.163-10.6-0.236-21.203-0.134-31.804c0.029-3.124-1.487-3.558-4.024-3.555
				c-33.059,0.04-66.119,0.051-99.178-0.005c-2.771-0.004-3.84,0.866-3.817,3.76c0.082,10.44,0.014,20.883-0.157,31.322
				c-0.056,3.414,1.16,4.5,4.645,4.461C519.034,429.891,535.254,429.991,551.471,429.993z M551.85,637.523c0,0.009,0,0.013,0,0.023
				c16.213,0,32.425-0.112,48.636,0.079c3.931,0.046,5.023-1.231,4.932-5.071c-0.242-10.127-0.202-20.266,0.01-30.395
				c0.075-3.547-1.109-4.446-4.562-4.436c-32.735,0.125-65.47,0.135-98.204-0.011c-3.688-0.015-4.441,1.306-4.388,4.608
				c0.166,10.286,0.255,20.58-0.019,30.859c-0.098,3.669,1.16,4.432,4.496,4.402C519.115,637.451,535.483,637.523,551.85,637.523z
				 M552.313,494.286c-16.385,0-32.771,0.073-49.154-0.059c-3.506-0.028-4.983,0.828-4.887,4.688
				c0.249,9.98,0.25,19.976-0.017,29.957c-0.107,4.006,1.335,4.98,5.104,4.954c21.846-0.138,43.693-0.06,65.539-0.059
				c10.762,0,21.521-0.041,32.283,0.011c3.121,0.016,4.444-1.126,4.367-4.458c-0.225-9.975-0.391-19.963-0.123-29.934
				c0.116-4.283-1.405-5.225-5.365-5.178C584.148,494.397,568.23,494.286,552.313,494.286z M513.479,649.357
				c-4.191,0.104-7.335,3.334-7.333,7.53c0.003,4.263,3.104,7.327,7.406,7.318c4.386-0.012,7.568-3.425,7.357-7.89
				C520.73,652.48,517.292,649.262,513.479,649.357z M520.814,449.718c0.063-4.32-2.851-7.396-7.154-7.554
				c-4.129-0.149-7.435,2.993-7.547,7.174c-0.112,4.177,3.015,7.478,7.195,7.591C517.467,457.042,520.754,453.884,520.814,449.718z
				 M590.177,649.377c-4.065-0.023-7.394,3.335-7.377,7.443c0.015,4.211,3.196,7.389,7.381,7.376
				c4.226-0.013,7.348-3.146,7.358-7.391C597.55,652.57,594.409,649.401,590.177,649.377z M513.677,545.884
				c-4.168-0.104-7.479,3.036-7.566,7.176c-0.086,4.048,3.232,7.588,7.195,7.673c3.965,0.088,7.427-3.285,7.53-7.331
				C520.946,549.1,517.985,545.99,513.677,545.884z M590.442,560.721c3.992-0.115,7.286-3.705,7.129-7.771
				c-0.156-4.072-3.546-7.14-7.774-7.037c-4.604,0.111-7.105,2.809-6.973,7.521C582.936,557.462,586.459,560.835,590.442,560.721z
				 M590.262,456.925c4.133-0.031,7.307-3.272,7.306-7.458c-0.001-4.083-3.374-7.402-7.419-7.301
				c-4.266,0.104-7.278,3.189-7.274,7.444C582.88,453.794,586.073,456.957,590.262,456.925z M551.779,442.167
				c-4.108,0.032-7.39,3.354-7.346,7.435c0.05,4.123,3.35,7.355,7.473,7.317c4.147-0.039,7.371-3.302,7.354-7.439
				C559.241,445.438,555.86,442.134,551.779,442.167z M559.231,553.695c0.08-4.395-3.149-7.756-7.442-7.749
				c-4.144,0.007-7.362,3.235-7.332,7.359c0.028,4.181,3.292,7.571,7.245,7.527C556.122,560.787,559.154,557.91,559.231,553.695z
				 M559.288,656.958c0.019-3.941-3.431-7.479-7.348-7.54c-3.899-0.061-7.45,3.4-7.539,7.347c-0.087,3.979,3.253,7.338,7.351,7.394
				C555.835,664.213,559.271,660.932,559.288,656.958z"/>
			<path style="fill-rule:evenodd;clip-rule:evenodd;fill:#494949;" d="M477.125,354.436c-0.074,25.589-0.204,51.178-0.211,76.768
				c-0.025,87.545-0.007,175.09,0.005,262.634c0.001,2.182,0.137,4.362,0.213,6.546c-5.276,0.033-11.854,2.009-15.487-0.418
				c-4.052-2.709-1.093-9.742-1.393-14.87c-0.344-5.896-0.265-11.836-0.005-17.742c0.143-3.259-0.812-4.238-4.12-4.196
				c-13.543,0.175-27.091,0.063-40.636,0.061c-2.007,0-3.85,0.083-5.544-1.634c-19.146-19.365-38.381-38.646-57.59-57.95
				c1.871-4.007,5.642-6.398,8.291-9.744c17.499,17.511,35.04,34.984,52.454,52.584c2.685,2.714,5.336,4.104,9.332,4.004
				c11.21-0.281,22.433-0.123,33.647,0.017c3.008,0.035,4.291-0.608,4.192-4.064c-0.333-11.67-0.276-23.35-0.366-35.024
				c0.002,0.002-0.176-0.384-0.176-0.384l-0.374,0.15c-4.733,0.048-9.465,0.092-14.198,0.138c0.98-4.295,1.292-8.588,0.018-12.885
				c4.05,0.002,8.104-0.098,12.147,0.048c2.291,0.084,2.9-0.802,2.882-2.987c-0.087-10.902-0.151-21.81,0.036-32.71
				c0.058-3.329-1.655-3.318-4.058-3.313c-13.707,0.04-27.414-0.037-41.121,0c-2.106,0.004-3.834-0.29-5.449-1.921
				c-19.177-19.354-38.424-38.642-57.65-57.946c1.965-3.908,6.281-5.844,8.207-9.785c18.056,18.057,36.129,36.094,54.136,54.196
				c1.866,1.878,3.722,2.88,6.49,2.845c11.683-0.155,23.371-0.155,35.053-0.017c3.048,0.033,4.474-0.52,4.4-4.035
				c-0.22-10.434-0.203-20.877-0.016-31.313c0.06-3.252-1.183-3.944-4.093-3.772c-3.412,0.2-6.849-0.026-10.273-0.066
				c-0.178-4.301,0.769-8.669-0.785-12.887c4.811-0.081,11.007,2.005,14.051-0.749c3.105-2.809,0.879-9.115,0.996-13.883
				c0.167-6.861-0.088-13.731,0.102-20.591c0.081-2.912-0.892-3.685-3.731-3.656c-13.571,0.139-27.144,0.041-40.716,0.094
				c-2.419,0.01-4.454-0.318-6.321-2.201c-18.99-19.16-38.063-38.235-57.109-57.333c1.293-4.439,5.337-6.542,8.199-9.65
				c17.439,17.347,34.938,34.635,52.257,52.101c2.821,2.845,5.533,4.34,9.691,4.224c11.05-0.308,22.121-0.285,33.174-0.026
				c3.813,0.089,4.653-1.172,4.569-4.733c-0.266-11.364-0.197-22.736-0.256-34.1c-0.262-0.102-0.524-0.208-0.787-0.313
				c-2.016,0.016-4.032,0.032-6.04,0.048c-1.626,0-3.261,0-4.896,0c-0.71-0.02-1.421-0.04-2.131-0.06
				c-1.305-3.22-0.409-6.882-0.926-9.92c-0.031-0.183,0-1.268-0.207-2.486c3.819-0.47,12.403,1.61,14.459-1.068
				c1.913-2.493,0.667-7.461,0.694-11.343c0.047-7.17,0.083-14.341-0.036-21.511c-0.042-2.582,0.766-3.633,3.471-3.479
				C468.096,354.382,472.613,354.347,477.125,354.436z"/>
			<path style="fill-rule:evenodd;clip-rule:evenodd;fill:#494949;" d="M743.054,593.876
				c-17.829,17.813-35.652,35.631-53.491,53.432c-1.509,1.509-2.804,3.142-5.416,3.114c-12.608-0.125-25.221-0.087-37.83-0.037
				c-1.903,0.007-2.836-0.5-2.813-2.583c0.138-12.134,0.195-24.266,0.281-36.399l0.15-0.369c0,0,0.347,0.123,0.344,0.123
				c4.771,0.056,9.545,0.11,14.318,0.164c-1.576-4.186-0.628-8.525-0.794-12.796c-3.581-0.025-7.173-0.242-10.742-0.021
				c-2.975,0.186-3.623-0.98-3.585-3.752c0.144-10.281,0.188-20.569-0.04-30.85c-0.079-3.575,1.109-4.429,4.543-4.39
				c13.554,0.167,27.11,0.009,40.665,0.009c1.9,0,3.565-0.063,5.095-1.608c19.175-19.371,38.413-38.673,57.636-57.993
				c-1.466-4.343-5.312-6.506-8.491-9.28c-17.418,17.347-34.886,34.647-52.207,52.093c-2.805,2.824-5.564,4.277-9.709,4.159
				c-11.046-0.313-22.108-0.208-33.161-0.056c-3.092,0.042-4.439-0.593-4.368-4.061c0.211-10.429,0.197-20.866,0.009-31.294
				c-0.059-3.254,1.192-3.936,4.097-3.766c3.41,0.199,6.846-0.026,10.269-0.069c-0.018-4.216-0.036-8.434-0.053-12.651
				c-3.907-0.003-7.813-0.007-11.72-0.011c-0.904-0.591-1.809-1.181-2.714-1.778c-0.146-1.19-0.296-2.389-0.444-3.585
				c0.855-1.683,0.617-3.417,0.242-5.16c0.839-7.299,0.239-14.626,0.364-21.942c0.11-6.56,0.024-6.578,6.789-6.59
				c9.512-0.016,19.092-0.71,28.52,0.189c9.785,0.933,16.386-2.59,23.026-9.59c16.616-17.519,34.092-34.221,51.224-51.25
				c-3.858-2.475-7.555-5.107-9.357-9.583c-17.784,17.887-35.553,35.785-53.368,53.636c-1.697,1.701-3.098,3.77-6.109,3.738
				c-12.472-0.131-24.945-0.087-37.416-0.035c-2.22,0.009-3.371-0.443-3.339-3.077c0.133-10.913,0.135-21.829,0.003-32.741
				c-0.033-2.684,1.261-3.081,3.396-3.055c3.888,0.047,7.778,0.006,11.668,0.002c-0.56-3.444-1.522-6.886-0.486-10.386
				c0.861-2.903-1.484-1.864-2.658-2.271c-2.646-0.043-5.309-0.268-7.942-0.081c-2.979,0.213-4.123-0.698-3.994-3.876
				c0.244-6.074,0.228-12.169,0.014-18.245c-0.176-4.921,2.325-11.519-1.007-14.316c-3.404-2.856-9.863-0.662-14.983-0.782
				c-0.3-0.007-0.604,0.144-0.903,0.221c0.078,1.557,0.218,3.114,0.219,4.67c0.008,26.21,0.104,52.42-0.032,78.628
				c-0.135,26.088,0.153,52.176,0.076,78.266c-0.175,59.281-0.047,118.564-0.054,177.847c-0.001,2.182-0.135,4.363-0.208,6.544
				c4.354,0.084,8.719-0.002,13.057,0.307c3.098,0.219,4.045-0.848,3.988-3.921c-0.176-9.807,0.046-19.624-0.176-29.431
				c-0.074-3.265,0.865-4.231,4.148-4.189c13.546,0.168,27.096,0.031,40.645,0.105c2.455,0.015,4.376-0.462,6.22-2.322
				c19.177-19.348,38.445-38.601,57.689-57.88C748.48,600.611,746.232,596.782,743.054,593.876z"/>
			<polygon style="fill-rule:evenodd;clip-rule:evenodd;fill:#C11E1E;" points="643.784,611.402 643.935,611.033 644.278,611.156 
				644.092,611.402 			"/>
			<polygon style="fill-rule:evenodd;clip-rule:evenodd;fill:#C11E1E;" points="459.357,611.171 459.73,611.021 459.906,611.404 
				459.576,611.414 			"/>
			<path style="fill-rule:evenodd;clip-rule:evenodd;fill:#FDFDFD;" d="M551.471,429.992c-16.217,0-32.437-0.101-48.652,0.078
				c-3.484,0.039-4.7-1.047-4.645-4.461c0.17-10.439,0.238-20.882,0.157-31.322c-0.022-2.894,1.047-3.764,3.817-3.76
				c33.059,0.056,66.119,0.045,99.178,0.005c2.537-0.003,4.054,0.432,4.024,3.555c-0.103,10.601-0.029,21.204,0.134,31.804
				c0.053,3.281-1.245,4.192-4.423,4.166C584.529,429.92,568.002,429.993,551.471,429.992z M551.85,403.45
				c-10.593,0-21.187-0.003-31.782,0.001c-9.038,0.003-8.849,0.01-8.98,9.126c-0.053,3.716,1.154,4.662,4.728,4.639
				c22.435-0.147,44.869-0.091,67.305-0.084c9.545,0.003,9.386,0.02,9.453-9.617c0.024-3.372-1.089-4.173-4.267-4.131
				C576.157,403.544,564.003,403.448,551.85,403.45z"/>
			<path style="fill-rule:evenodd;clip-rule:evenodd;fill:#FDFDFD;" d="M551.85,637.523c-16.366,0-32.734-0.072-49.1,0.061
				c-3.335,0.029-4.594-0.733-4.496-4.402c0.274-10.279,0.185-20.573,0.019-30.859c-0.054-3.303,0.7-4.623,4.388-4.608
				c32.734,0.146,65.469,0.136,98.204,0.011c3.452-0.011,4.637,0.889,4.562,4.436c-0.212,10.129-0.252,20.268-0.01,30.395
				c0.092,3.84-1.001,5.117-4.932,5.071c-16.211-0.191-32.423-0.079-48.636-0.079C551.85,637.536,551.85,637.532,551.85,637.523z
				 M551.823,624.599c0-0.007,0-0.013,0-0.017c10.295,0,20.59-0.011,30.888,0c9.652,0.012,9.469,0.015,9.885-9.549
				c0.153-3.509-0.641-4.467-4.24-4.439c-22.462,0.175-44.927,0.087-67.391,0.085c-9.669,0-9.415,0.013-9.888,9.448
				c-0.203,4.038,1.252,4.588,4.71,4.54C527.797,624.492,539.811,624.599,551.823,624.599z"/>
			<path style="fill-rule:evenodd;clip-rule:evenodd;fill:#FDFDFD;" d="M552.313,494.286c15.917,0,31.835,0.111,47.748-0.079
				c3.96-0.046,5.481,0.895,5.365,5.178c-0.268,9.971-0.102,19.959,0.123,29.934c0.077,3.332-1.246,4.474-4.367,4.458
				c-10.762-0.052-21.521-0.011-32.283-0.011c-21.846-0.001-43.693-0.079-65.539,0.059c-3.769,0.026-5.211-0.948-5.104-4.954
				c0.267-9.981,0.265-19.977,0.017-29.957c-0.096-3.86,1.381-4.716,4.887-4.688C519.543,494.359,535.929,494.286,552.313,494.286z
				 M551.375,506.976c-10.61,0-21.222-0.01-31.834,0.004c-8.476,0.011-8.163,0.039-8.56,8.724c-0.21,4.608,1.55,5.26,5.528,5.23
				c22.313-0.16,44.628-0.081,66.943-0.089c9.258-0.003,9.058-0.015,9.242-9.348c0.074-3.839-1.242-4.668-4.806-4.609
				C575.72,507.086,563.547,506.964,551.375,506.976z"/>
			<path style="fill-rule:evenodd;clip-rule:evenodd;fill:#FDFDFD;" d="M513.479,649.357c3.813-0.096,7.251,3.123,7.431,6.959
				c0.211,4.465-2.971,7.878-7.357,7.89c-4.302,0.009-7.403-3.056-7.406-7.318C506.144,652.691,509.288,649.462,513.479,649.357z"/>
			<path style="fill-rule:evenodd;clip-rule:evenodd;fill:#FDFDFD;" d="M520.814,449.718c-0.061,4.167-3.348,7.325-7.506,7.212
				c-4.18-0.114-7.307-3.415-7.195-7.591c0.113-4.182,3.418-7.324,7.547-7.174C517.964,442.322,520.877,445.398,520.814,449.718z"/>
			<path style="fill-rule:evenodd;clip-rule:evenodd;fill:#FDFDFD;" d="M590.177,649.377c4.232,0.024,7.373,3.193,7.362,7.429
				c-0.011,4.244-3.133,7.378-7.358,7.391c-4.185,0.013-7.366-3.165-7.381-7.376C582.783,652.712,586.111,649.354,590.177,649.377z"
				/>
			<path style="fill-rule:evenodd;clip-rule:evenodd;fill:#FDFDFD;" d="M513.677,545.884c4.309,0.106,7.269,3.216,7.159,7.518
				c-0.103,4.046-3.565,7.419-7.53,7.331c-3.963-0.085-7.282-3.625-7.195-7.673C506.197,548.92,509.508,545.779,513.677,545.884z"/>
			<path style="fill-rule:evenodd;clip-rule:evenodd;fill:#FDFDFD;" d="M590.442,560.721c-3.983,0.114-7.507-3.259-7.618-7.288
				c-0.133-4.712,2.368-7.409,6.973-7.521c4.229-0.103,7.618,2.965,7.774,7.037C597.729,557.016,594.435,560.605,590.442,560.721z"
				/>
			<path style="fill-rule:evenodd;clip-rule:evenodd;fill:#FDFDFD;" d="M590.262,456.925c-4.188,0.031-7.382-3.131-7.388-7.315
				c-0.004-4.254,3.009-7.339,7.274-7.444c4.045-0.101,7.418,3.218,7.419,7.301C597.568,453.653,594.395,456.894,590.262,456.925z"
				/>
			<path style="fill-rule:evenodd;clip-rule:evenodd;fill:#FDFDFD;" d="M551.779,442.167c4.081-0.033,7.462,3.271,7.48,7.312
				c0.018,4.138-3.206,7.4-7.354,7.439c-4.123,0.038-7.423-3.194-7.473-7.317C544.39,445.521,547.671,442.199,551.779,442.167z"/>
			<path style="fill-rule:evenodd;clip-rule:evenodd;fill:#FDFDFD;" d="M559.231,553.695c-0.077,4.215-3.109,7.092-7.529,7.138
				c-3.953,0.044-7.217-3.347-7.245-7.527c-0.03-4.124,3.188-7.353,7.332-7.359C556.082,545.939,559.312,549.301,559.231,553.695z"
				/>
			<path style="fill-rule:evenodd;clip-rule:evenodd;fill:#FDFDFD;" d="M559.288,656.958c-0.018,3.974-3.453,7.255-7.536,7.2
				c-4.098-0.056-7.438-3.414-7.351-7.394c0.089-3.946,3.64-7.407,7.539-7.347C555.857,649.479,559.307,653.017,559.288,656.958z"/>
			<path style="fill-rule:evenodd;clip-rule:evenodd;fill:#494949;" d="M551.85,403.449c12.153-0.001,24.308,0.095,36.458-0.065
				c3.178-0.042,4.291,0.759,4.267,4.131c-0.067,9.637,0.092,9.62-9.453,9.617c-22.437-0.006-44.871-0.063-67.305,0.084
				c-3.574,0.023-4.781-0.923-4.728-4.639c0.131-9.116-0.058-9.123,8.98-9.126C530.663,403.447,541.257,403.45,551.85,403.449z"/>
			<path style="fill-rule:evenodd;clip-rule:evenodd;fill:#494949;" d="M551.823,624.599c-12.012,0-24.026-0.106-36.036,0.068
				c-3.458,0.048-4.913-0.502-4.71-4.54c0.473-9.436,0.219-9.448,9.888-9.448c22.464,0.002,44.929,0.09,67.391-0.085
				c3.6-0.027,4.394,0.931,4.24,4.439c-0.416,9.563-0.232,9.561-9.885,9.549c-10.298-0.011-20.593,0-30.888,0
				C551.823,624.586,551.823,624.592,551.823,624.599z"/>
			<path style="fill-rule:evenodd;clip-rule:evenodd;fill:#494949;" d="M551.375,506.97c12.172-0.006,24.345,0.116,36.514-0.082
				c3.563-0.059,4.88,0.77,4.806,4.609c-0.185,9.333,0.016,9.345-9.242,9.348c-22.314,0.008-44.63-0.071-66.943,0.089
				c-3.978,0.029-5.738-0.623-5.528-5.23c0.396-8.685,0.083-8.713,8.56-8.724C530.153,506.966,540.765,506.976,551.375,506.97z"/>
		</g>
		<g>
			<path style="fill-rule:evenodd;clip-rule:evenodd;fill:#FFFFFF;" d="M415.639,394.813c0-3.251,0.058-6.504-0.022-9.752
				c-0.046-1.896,0.734-3.283,2.156-4.398c1.762-1.38,3.796-2.188,5.947-2.693c5.974-1.405,11.88-1.292,17.619,1.04
				c1.206,0.491,2.329,1.268,3.362,2.078c1.182,0.925,1.711,2.221,1.703,3.778c-0.032,6.638-0.034,13.276,0.003,19.914
				c0.008,1.591-0.586,2.833-1.727,3.865c-1.309,1.185-2.851,1.973-4.515,2.501c-6.317,2.013-12.641,2.031-18.882-0.244
				c-1.464-0.534-2.815-1.486-4.078-2.433c-1.125-0.843-1.596-2.114-1.578-3.578C415.667,401.532,415.641,398.173,415.639,394.813z
				 M431.564,389.396c0.909-0.08,2.427-0.147,3.923-0.368c1.199-0.177,2.39-0.478,3.55-0.836c1.532-0.472,3.003-1.112,4.192-2.236
				c1.149-1.089,1.213-2.127,0.026-3.108c-0.903-0.746-1.93-1.443-3.019-1.848c-6.095-2.265-12.249-2.257-18.348-0.042
				c-1.23,0.447-2.354,1.313-3.376,2.165c-0.847,0.705-0.83,1.649-0.051,2.436c0.655,0.661,1.43,1.261,2.256,1.686
				C423.924,388.896,427.41,389.309,431.564,389.396z M417.926,388.471c0,0.816,0.131,1.724-0.025,2.578
				c-0.396,2.161,0.73,3.264,2.518,3.997c0.151,0.062,0.294,0.14,0.444,0.203c5.395,2.234,10.947,2.381,16.584,1.208
				c2.191-0.456,4.274-1.214,6.059-2.622c0.252-0.201,0.556-0.533,0.566-0.813c0.056-1.557,0.026-3.118,0.026-4.559
				C435.387,392.756,426.744,392.765,417.926,388.471z M417.926,395.193c0,0.791,0.137,1.656-0.025,2.461
				c-0.453,2.254,0.787,3.34,2.604,4.106c0.124,0.053,0.244,0.116,0.37,0.167c5.396,2.228,10.951,2.389,16.59,1.205
				c2.106-0.443,4.121-1.171,5.867-2.483c0.306-0.23,0.717-0.581,0.733-0.893c0.075-1.552,0.035-3.11,0.035-4.565
				C435.348,399.492,426.7,399.501,417.926,395.193z M417.928,401.868c0,0.933,0.042,1.953-0.013,2.968
				c-0.049,0.934,0.288,1.692,1.021,2.174c1.056,0.694,2.133,1.426,3.306,1.857c4.645,1.708,9.429,1.812,14.255,0.933
				c2.199-0.4,4.329-1.045,6.134-2.424c0.56-0.427,1.25-1.033,1.347-1.642c0.207-1.297,0.063-2.65,0.063-3.847
				C435.322,406.179,426.675,406.172,417.928,401.868z"/>
			<path style="fill-rule:evenodd;clip-rule:evenodd;fill:#C11E1E;" d="M431.564,389.396c-4.155-0.087-7.641-0.5-10.846-2.151
				c-0.826-0.425-1.601-1.024-2.256-1.686c-0.779-0.787-0.796-1.731,0.051-2.436c1.023-0.852,2.146-1.718,3.376-2.165
				c6.099-2.215,12.252-2.223,18.348,0.042c1.088,0.405,2.116,1.102,3.019,1.848c1.187,0.981,1.124,2.019-0.026,3.108
				c-1.189,1.124-2.661,1.764-4.192,2.236c-1.16,0.358-2.351,0.659-3.55,0.836C433.992,389.249,432.473,389.316,431.564,389.396z"/>
			<path style="fill-rule:evenodd;clip-rule:evenodd;fill:#C11E1E;" d="M417.926,388.471c8.818,4.294,17.461,4.285,26.172-0.008
				c0,1.441,0.029,3.002-0.026,4.559c-0.01,0.28-0.314,0.612-0.566,0.813c-1.785,1.408-3.867,2.167-6.059,2.622
				c-5.637,1.173-11.189,1.025-16.584-1.208c-0.149-0.063-0.293-0.141-0.444-0.203c-1.788-0.733-2.915-1.836-2.518-3.997
				C418.057,390.195,417.926,389.288,417.926,388.471z M441.969,391.448c-0.448,0.196-0.872,0.449-1.331,0.566
				c-0.867,0.22-0.917,0.748-0.694,1.454C441.903,393.112,442.256,392.767,441.969,391.448z"/>
			<path style="fill-rule:evenodd;clip-rule:evenodd;fill:#C11E1E;" d="M417.926,395.193c8.774,4.309,17.422,4.299,26.173-0.002
				c0,1.455,0.04,3.013-0.035,4.565c-0.016,0.313-0.427,0.663-0.733,0.893c-1.746,1.313-3.76,2.041-5.867,2.483
				c-5.639,1.184-11.193,1.022-16.59-1.205c-0.125-0.051-0.246-0.114-0.37-0.167c-1.817-0.766-3.057-1.852-2.604-4.106
				C418.063,396.849,417.926,395.983,417.926,395.193z M442.003,398.096c-0.505,0.22-0.929,0.463-1.385,0.595
				c-0.826,0.241-0.91,0.749-0.668,1.449C441.833,399.814,442.185,399.478,442.003,398.096z"/>
			<path style="fill-rule:evenodd;clip-rule:evenodd;fill:#C11E1E;" d="M417.928,401.868c8.748,4.304,17.394,4.311,26.113,0.019
				c0,1.197,0.144,2.55-0.063,3.847c-0.097,0.609-0.787,1.214-1.347,1.642c-1.805,1.379-3.935,2.024-6.134,2.424
				c-4.826,0.878-9.61,0.775-14.255-0.933c-1.173-0.431-2.25-1.164-3.306-1.857c-0.732-0.481-1.069-1.24-1.021-2.174
				C417.969,403.821,417.928,402.801,417.928,401.868z M442.023,404.827c-0.501,0.218-0.925,0.461-1.38,0.588
				c-0.825,0.226-0.943,0.731-0.711,1.446C441.657,406.645,442.149,406.192,442.023,404.827z"/>
			<path style="fill-rule:evenodd;clip-rule:evenodd;fill:#FFFFFF;" d="M441.969,391.448c0.287,1.319-0.066,1.665-2.025,2.02
				c-0.222-0.707-0.173-1.234,0.694-1.454C441.098,391.897,441.521,391.644,441.969,391.448z"/>
			<path style="fill-rule:evenodd;clip-rule:evenodd;fill:#FFFFFF;" d="M442.003,398.096c0.181,1.382-0.17,1.718-2.053,2.044
				c-0.242-0.701-0.158-1.208,0.668-1.449C441.074,398.559,441.499,398.316,442.003,398.096z"/>
			<path style="fill-rule:evenodd;clip-rule:evenodd;fill:#FFFFFF;" d="M442.023,404.827c0.125,1.365-0.367,1.817-2.091,2.034
				c-0.232-0.715-0.114-1.221,0.711-1.446C441.099,405.289,441.522,405.045,442.023,404.827z"/>
		</g>
		<g>
			<path style="fill-rule:evenodd;clip-rule:evenodd;fill:#FFFFFF;" d="M655.927,398.928c0-3.29,0.059-6.581-0.024-9.868
				c-0.044-1.917,0.744-3.321,2.182-4.448c1.782-1.398,3.84-2.214,6.018-2.726c6.046-1.421,12.021-1.307,17.827,1.053
				c1.22,0.497,2.355,1.284,3.401,2.102c1.196,0.937,1.73,2.248,1.725,3.824c-0.033,6.716-0.037,13.431,0.002,20.146
				c0.007,1.61-0.593,2.866-1.747,3.911c-1.324,1.198-2.886,1.996-4.569,2.532c-6.391,2.036-12.789,2.054-19.103-0.248
				c-1.48-0.541-2.849-1.504-4.125-2.462c-1.139-0.853-1.615-2.14-1.598-3.62C655.955,405.726,655.928,402.327,655.927,398.928z
				 M672.039,393.447c0.921-0.081,2.456-0.148,3.968-0.373c1.216-0.179,2.42-0.484,3.592-0.846c1.552-0.478,3.041-1.126,4.243-2.264
				c1.162-1.101,1.227-2.15,0.027-3.144c-0.915-0.755-1.955-1.46-3.056-1.869c-6.167-2.293-12.394-2.284-18.562-0.042
				c-1.246,0.452-2.382,1.328-3.417,2.191c-0.857,0.713-0.839,1.667-0.052,2.463c0.662,0.669,1.446,1.276,2.281,1.706
				C664.308,392.941,667.835,393.359,672.039,393.447z M658.239,392.511c0,0.826,0.135,1.745-0.023,2.609
				c-0.402,2.185,0.737,3.301,2.547,4.043c0.151,0.062,0.298,0.141,0.448,0.205c5.458,2.261,11.076,2.409,16.779,1.223
				c2.216-0.461,4.325-1.229,6.13-2.653c0.256-0.202,0.563-0.539,0.572-0.822c0.057-1.576,0.028-3.155,0.028-4.614
				C675.906,396.846,667.162,396.856,658.239,392.511z M658.239,399.312c0,0.8,0.138,1.676-0.023,2.491
				c-0.461,2.279,0.796,3.379,2.632,4.155c0.127,0.052,0.249,0.117,0.375,0.169c5.461,2.253,11.079,2.417,16.785,1.218
				c2.132-0.448,4.168-1.184,5.935-2.512c0.31-0.232,0.727-0.587,0.743-0.903c0.075-1.571,0.035-3.147,0.035-4.619
				C675.867,403.661,667.117,403.672,658.239,399.312z M658.24,406.065c0,0.944,0.044,1.977-0.01,3.003
				c-0.052,0.945,0.289,1.711,1.032,2.2c1.067,0.701,2.156,1.442,3.344,1.878c4.698,1.729,9.539,1.833,14.421,0.944
				c2.226-0.406,4.382-1.057,6.208-2.453c0.566-0.432,1.265-1.045,1.363-1.661c0.21-1.313,0.063-2.681,0.063-3.891
				C675.838,410.426,667.093,410.421,658.24,406.065z"/>
			<path style="fill-rule:evenodd;clip-rule:evenodd;fill:#C11E1E;" d="M672.039,393.447c-4.204-0.088-7.731-0.505-10.975-2.177
				c-0.835-0.43-1.619-1.037-2.281-1.706c-0.787-0.796-0.806-1.75,0.052-2.463c1.035-0.863,2.171-1.739,3.417-2.191
				c6.168-2.242,12.395-2.25,18.562,0.042c1.101,0.409,2.141,1.114,3.056,1.869c1.199,0.993,1.135,2.043-0.027,3.144
				c-1.202,1.137-2.691,1.786-4.243,2.264c-1.172,0.362-2.376,0.667-3.592,0.846C674.495,393.298,672.96,393.366,672.039,393.447z"
				/>
			<path style="fill-rule:evenodd;clip-rule:evenodd;fill:#C11E1E;" d="M658.239,392.511c8.923,4.345,17.667,4.334,26.481-0.009
				c0,1.459,0.028,3.038-0.028,4.614c-0.01,0.283-0.316,0.62-0.572,0.822c-1.805,1.424-3.914,2.191-6.13,2.653
				c-5.703,1.186-11.321,1.038-16.779-1.223c-0.15-0.064-0.297-0.143-0.448-0.205c-1.81-0.742-2.949-1.858-2.547-4.043
				C658.374,394.256,658.239,393.337,658.239,392.511z M682.565,395.523c-0.453,0.197-0.88,0.454-1.346,0.571
				c-0.878,0.224-0.927,0.758-0.701,1.472C682.498,397.208,682.857,396.858,682.565,395.523z"/>
			<path style="fill-rule:evenodd;clip-rule:evenodd;fill:#C11E1E;" d="M658.239,399.312c8.878,4.36,17.628,4.35,26.481-0.001
				c0,1.472,0.04,3.048-0.035,4.619c-0.017,0.316-0.434,0.67-0.743,0.903c-1.767,1.328-3.803,2.064-5.935,2.512
				c-5.706,1.198-11.324,1.035-16.785-1.218c-0.126-0.052-0.248-0.117-0.375-0.169c-1.836-0.775-3.093-1.875-2.632-4.155
				C658.377,400.987,658.239,400.112,658.239,399.312z M682.601,402.248c-0.512,0.224-0.939,0.468-1.4,0.603
				c-0.836,0.243-0.921,0.756-0.677,1.466C682.429,403.988,682.783,403.648,682.601,402.248z"/>
			<path style="fill-rule:evenodd;clip-rule:evenodd;fill:#C11E1E;" d="M658.24,406.065c8.853,4.355,17.598,4.361,26.421,0.02
				c0,1.21,0.147,2.579-0.063,3.891c-0.099,0.616-0.797,1.229-1.363,1.661c-1.826,1.396-3.982,2.047-6.208,2.453
				c-4.882,0.889-9.723,0.785-14.421-0.944c-1.188-0.436-2.276-1.177-3.344-1.878c-0.743-0.489-1.084-1.255-1.032-2.2
				C658.284,408.042,658.24,407.009,658.24,406.065z M682.621,409.059c-0.507,0.221-0.935,0.468-1.397,0.595
				c-0.834,0.229-0.954,0.74-0.72,1.464C682.25,410.897,682.748,410.44,682.621,409.059z"/>
			<path style="fill-rule:evenodd;clip-rule:evenodd;fill:#FFFFFF;" d="M682.565,395.523c0.292,1.334-0.067,1.684-2.047,2.042
				c-0.226-0.714-0.177-1.248,0.701-1.472C681.686,395.977,682.112,395.721,682.565,395.523z"/>
			<path style="fill-rule:evenodd;clip-rule:evenodd;fill:#FFFFFF;" d="M682.601,402.248c0.183,1.4-0.172,1.74-2.077,2.069
				c-0.244-0.71-0.159-1.223,0.677-1.466C681.661,402.716,682.089,402.472,682.601,402.248z"/>
			<path style="fill-rule:evenodd;clip-rule:evenodd;fill:#FFFFFF;" d="M682.621,409.059c0.127,1.381-0.371,1.838-2.117,2.059
				c-0.234-0.724-0.114-1.235,0.72-1.464C681.687,409.527,682.114,409.28,682.621,409.059z"/>
		</g>
		<g>
			<path style="fill-rule:evenodd;clip-rule:evenodd;fill:#FFFFFF;" d="M655.927,501.345c0-3.29,0.059-6.58-0.024-9.868
				c-0.044-1.917,0.744-3.32,2.182-4.449c1.782-1.397,3.84-2.212,6.018-2.725c6.046-1.421,12.021-1.307,17.827,1.053
				c1.22,0.496,2.355,1.283,3.401,2.102c1.196,0.937,1.73,2.247,1.725,3.824c-0.033,6.715-0.037,13.431,0.002,20.146
				c0.007,1.61-0.593,2.866-1.747,3.91c-1.324,1.199-2.886,1.996-4.569,2.532c-6.391,2.036-12.789,2.055-19.103-0.247
				c-1.48-0.54-2.849-1.504-4.125-2.462c-1.139-0.853-1.615-2.14-1.598-3.62C655.955,508.143,655.928,504.743,655.927,501.345z
				 M672.039,495.864c0.921-0.081,2.456-0.149,3.968-0.373c1.216-0.179,2.42-0.483,3.592-0.845c1.552-0.478,3.041-1.127,4.243-2.264
				c1.162-1.1,1.227-2.15,0.027-3.143c-0.915-0.756-1.955-1.46-3.056-1.871c-6.167-2.292-12.394-2.283-18.562-0.042
				c-1.246,0.453-2.382,1.329-3.417,2.191c-0.857,0.713-0.839,1.667-0.052,2.464c0.662,0.669,1.446,1.275,2.281,1.705
				C664.308,495.358,667.835,495.776,672.039,495.864z M658.239,494.929c0,0.826,0.135,1.744-0.023,2.609
				c-0.402,2.185,0.737,3.302,2.547,4.043c0.151,0.062,0.298,0.141,0.448,0.204c5.458,2.262,11.076,2.409,16.779,1.224
				c2.216-0.461,4.325-1.229,6.13-2.653c0.256-0.203,0.563-0.54,0.572-0.822c0.057-1.576,0.028-3.155,0.028-4.613
				C675.906,499.263,667.162,499.272,658.239,494.929z M658.239,501.729c0,0.799,0.138,1.675-0.023,2.49
				c-0.461,2.28,0.796,3.379,2.632,4.154c0.127,0.053,0.249,0.117,0.375,0.169c5.461,2.254,11.079,2.417,16.785,1.219
				c2.132-0.449,4.168-1.186,5.935-2.513c0.31-0.232,0.727-0.587,0.743-0.903c0.075-1.571,0.035-3.147,0.035-4.619
				C675.867,506.078,667.117,506.088,658.239,501.729z M658.24,508.482c0,0.944,0.044,1.977-0.01,3.003
				c-0.052,0.944,0.289,1.712,1.032,2.2c1.067,0.701,2.156,1.442,3.344,1.878c4.698,1.729,9.539,1.833,14.421,0.944
				c2.226-0.405,4.382-1.058,6.208-2.453c0.566-0.433,1.265-1.045,1.363-1.662c0.21-1.312,0.063-2.68,0.063-3.892
				C675.838,512.843,667.093,512.837,658.24,508.482z"/>
			<path style="fill-rule:evenodd;clip-rule:evenodd;fill:#C11E1E;" d="M672.039,495.864c-4.204-0.088-7.731-0.505-10.975-2.177
				c-0.835-0.43-1.619-1.036-2.281-1.705c-0.787-0.797-0.806-1.751,0.052-2.464c1.035-0.862,2.171-1.738,3.417-2.191
				c6.168-2.241,12.395-2.25,18.562,0.042c1.101,0.411,2.141,1.114,3.056,1.871c1.199,0.993,1.135,2.043-0.027,3.143
				c-1.202,1.137-2.691,1.786-4.243,2.264c-1.172,0.362-2.376,0.667-3.592,0.845C674.495,495.715,672.96,495.783,672.039,495.864z"
				/>
			<path style="fill-rule:evenodd;clip-rule:evenodd;fill:#C11E1E;" d="M658.239,494.929c8.923,4.343,17.667,4.334,26.481-0.009
				c0,1.458,0.028,3.038-0.028,4.613c-0.01,0.283-0.316,0.619-0.572,0.822c-1.805,1.424-3.914,2.192-6.13,2.653
				c-5.703,1.186-11.321,1.038-16.779-1.224c-0.15-0.063-0.297-0.142-0.448-0.204c-1.81-0.741-2.949-1.858-2.547-4.043
				C658.374,496.673,658.239,495.754,658.239,494.929z M682.565,497.94c-0.453,0.198-0.88,0.454-1.346,0.571
				c-0.878,0.224-0.927,0.758-0.701,1.472C682.498,499.624,682.857,499.274,682.565,497.94z"/>
			<path style="fill-rule:evenodd;clip-rule:evenodd;fill:#C11E1E;" d="M658.239,501.729c8.878,4.359,17.628,4.349,26.481-0.002
				c0,1.472,0.04,3.048-0.035,4.619c-0.017,0.316-0.434,0.67-0.743,0.903c-1.767,1.327-3.803,2.064-5.935,2.513
				c-5.706,1.197-11.324,1.035-16.785-1.219c-0.126-0.052-0.248-0.116-0.375-0.169c-1.836-0.774-3.093-1.874-2.632-4.154
				C658.377,503.404,658.239,502.528,658.239,501.729z M682.601,504.666c-0.512,0.223-0.939,0.467-1.4,0.601
				c-0.836,0.244-0.921,0.756-0.677,1.467C682.429,506.404,682.783,506.065,682.601,504.666z"/>
			<path style="fill-rule:evenodd;clip-rule:evenodd;fill:#C11E1E;" d="M658.24,508.482c8.853,4.354,17.598,4.36,26.421,0.02
				c0,1.211,0.147,2.58-0.063,3.892c-0.099,0.617-0.797,1.229-1.363,1.662c-1.826,1.395-3.982,2.047-6.208,2.453
				c-4.882,0.889-9.723,0.784-14.421-0.944c-1.188-0.436-2.276-1.177-3.344-1.878c-0.743-0.488-1.084-1.256-1.032-2.2
				C658.284,510.459,658.24,509.427,658.24,508.482z M682.621,511.477c-0.507,0.22-0.935,0.467-1.397,0.594
				c-0.834,0.229-0.954,0.74-0.72,1.464C682.25,513.314,682.748,512.857,682.621,511.477z"/>
			<path style="fill-rule:evenodd;clip-rule:evenodd;fill:#FFFFFF;" d="M682.565,497.94c0.292,1.334-0.067,1.684-2.047,2.042
				c-0.226-0.714-0.177-1.248,0.701-1.472C681.686,498.395,682.112,498.138,682.565,497.94z"/>
			<path style="fill-rule:evenodd;clip-rule:evenodd;fill:#FFFFFF;" d="M682.601,504.666c0.183,1.399-0.172,1.738-2.077,2.068
				c-0.244-0.71-0.159-1.223,0.677-1.467C681.661,505.133,682.089,504.889,682.601,504.666z"/>
			<path style="fill-rule:evenodd;clip-rule:evenodd;fill:#FFFFFF;" d="M682.621,511.477c0.127,1.38-0.371,1.838-2.117,2.058
				c-0.234-0.724-0.114-1.235,0.72-1.464C681.687,511.943,682.114,511.697,682.621,511.477z"/>
		</g>
		<g>
			<path style="fill-rule:evenodd;clip-rule:evenodd;fill:#FFFFFF;" d="M655.927,599.12c0-3.29,0.059-6.579-0.024-9.867
				c-0.044-1.917,0.744-3.323,2.182-4.448c1.782-1.397,3.84-2.217,6.018-2.728c6.046-1.421,12.021-1.306,17.827,1.055
				c1.22,0.496,2.355,1.283,3.401,2.1c1.196,0.938,1.73,2.248,1.725,3.825c-0.033,6.715-0.037,13.433,0.002,20.147
				c0.007,1.61-0.593,2.864-1.747,3.908c-1.324,1.198-2.886,1.996-4.569,2.531c-6.391,2.038-12.789,2.057-19.103-0.246
				c-1.48-0.539-2.849-1.502-4.125-2.46c-1.139-0.854-1.615-2.14-1.598-3.621C655.955,605.918,655.928,602.521,655.927,599.12z
				 M672.039,593.639c0.921-0.081,2.456-0.148,3.968-0.371c1.216-0.182,2.42-0.485,3.592-0.846c1.552-0.479,3.041-1.127,4.243-2.265
				c1.162-1.101,1.227-2.15,0.027-3.144c-0.915-0.755-1.955-1.459-3.056-1.869c-6.167-2.294-12.394-2.283-18.562-0.042
				c-1.246,0.452-2.382,1.329-3.417,2.189c-0.857,0.713-0.839,1.667-0.052,2.465c0.662,0.669,1.446,1.275,2.281,1.704
				C664.308,593.132,667.835,593.551,672.039,593.639z M658.239,592.703c0,0.827,0.135,1.746-0.023,2.608
				c-0.402,2.186,0.737,3.302,2.547,4.046c0.151,0.061,0.298,0.14,0.448,0.202c5.458,2.263,11.076,2.41,16.779,1.223
				c2.216-0.46,4.325-1.227,6.13-2.649c0.256-0.207,0.563-0.54,0.572-0.825c0.057-1.577,0.028-3.154,0.028-4.615
				C675.906,597.039,667.162,597.049,658.239,592.703z M658.239,599.504c0,0.802,0.138,1.677-0.023,2.489
				c-0.461,2.281,0.796,3.382,2.632,4.156c0.127,0.055,0.249,0.117,0.375,0.169c5.461,2.252,11.079,2.419,16.785,1.219
				c2.132-0.45,4.168-1.186,5.935-2.513c0.31-0.231,0.727-0.588,0.743-0.902c0.075-1.573,0.035-3.146,0.035-4.621
				C675.867,603.855,667.117,603.862,658.239,599.504z M658.24,606.258c0,0.946,0.044,1.978-0.01,3
				c-0.052,0.948,0.289,1.715,1.032,2.202c1.067,0.702,2.156,1.442,3.344,1.878c4.698,1.729,9.539,1.835,14.421,0.945
				c2.226-0.404,4.382-1.059,6.208-2.452c0.566-0.434,1.265-1.044,1.363-1.663c0.21-1.311,0.063-2.681,0.063-3.892
				C675.838,610.618,667.093,610.612,658.24,606.258z"/>
			<path style="fill-rule:evenodd;clip-rule:evenodd;fill:#C11E1E;" d="M672.039,593.639c-4.204-0.088-7.731-0.507-10.975-2.178
				c-0.835-0.429-1.619-1.035-2.281-1.704c-0.787-0.798-0.806-1.752,0.052-2.465c1.035-0.86,2.171-1.737,3.417-2.189
				c6.168-2.241,12.395-2.252,18.562,0.042c1.101,0.41,2.141,1.114,3.056,1.869c1.199,0.993,1.135,2.043-0.027,3.144
				c-1.202,1.138-2.691,1.785-4.243,2.265c-1.172,0.36-2.376,0.664-3.592,0.846C674.495,593.49,672.96,593.558,672.039,593.639z"/>
			<path style="fill-rule:evenodd;clip-rule:evenodd;fill:#C11E1E;" d="M658.239,592.703c8.923,4.346,17.667,4.336,26.481-0.011
				c0,1.461,0.028,3.038-0.028,4.615c-0.01,0.285-0.316,0.618-0.572,0.825c-1.805,1.423-3.914,2.189-6.13,2.649
				c-5.703,1.188-11.321,1.04-16.779-1.223c-0.15-0.063-0.297-0.142-0.448-0.202c-1.81-0.744-2.949-1.86-2.547-4.046
				C658.374,594.449,658.239,593.53,658.239,592.703z M682.565,595.716c-0.453,0.198-0.88,0.452-1.346,0.57
				c-0.878,0.226-0.927,0.757-0.701,1.474C682.498,597.401,682.857,597.049,682.565,595.716z"/>
			<path style="fill-rule:evenodd;clip-rule:evenodd;fill:#C11E1E;" d="M658.239,599.504c8.878,4.358,17.628,4.352,26.481-0.003
				c0,1.476,0.04,3.048-0.035,4.621c-0.017,0.314-0.434,0.671-0.743,0.902c-1.767,1.327-3.803,2.063-5.935,2.513
				c-5.706,1.2-11.324,1.033-16.785-1.219c-0.126-0.052-0.248-0.114-0.375-0.169c-1.836-0.774-3.093-1.875-2.632-4.156
				C658.377,601.181,658.239,600.306,658.239,599.504z M682.601,602.441c-0.512,0.223-0.939,0.466-1.4,0.602
				c-0.836,0.242-0.921,0.757-0.677,1.465C682.429,604.179,682.783,603.841,682.601,602.441z"/>
			<path style="fill-rule:evenodd;clip-rule:evenodd;fill:#C11E1E;" d="M658.24,606.258c8.853,4.354,17.598,4.36,26.421,0.019
				c0,1.211,0.147,2.581-0.063,3.892c-0.099,0.619-0.797,1.229-1.363,1.663c-1.826,1.394-3.982,2.048-6.208,2.452
				c-4.882,0.89-9.723,0.783-14.421-0.945c-1.188-0.436-2.276-1.176-3.344-1.878c-0.743-0.487-1.084-1.254-1.032-2.202
				C658.284,608.235,658.24,607.204,658.24,606.258z M682.621,609.252c-0.507,0.221-0.935,0.469-1.397,0.594
				c-0.834,0.229-0.954,0.739-0.72,1.465C682.25,611.089,682.748,610.633,682.621,609.252z"/>
			<path style="fill-rule:evenodd;clip-rule:evenodd;fill:#FFFFFF;" d="M682.565,595.716c0.292,1.333-0.067,1.686-2.047,2.044
				c-0.226-0.717-0.177-1.248,0.701-1.474C681.686,596.168,682.112,595.914,682.565,595.716z"/>
			<path style="fill-rule:evenodd;clip-rule:evenodd;fill:#FFFFFF;" d="M682.601,602.441c0.183,1.399-0.172,1.737-2.077,2.066
				c-0.244-0.708-0.159-1.223,0.677-1.465C681.661,602.907,682.089,602.664,682.601,602.441z"/>
			<path style="fill-rule:evenodd;clip-rule:evenodd;fill:#FFFFFF;" d="M682.621,609.252c0.127,1.381-0.371,1.837-2.117,2.059
				c-0.234-0.726-0.114-1.236,0.72-1.465C681.687,609.721,682.114,609.473,682.621,609.252z"/>
		</g>
		<g>
			<path style="fill-rule:evenodd;clip-rule:evenodd;fill:#FFFFFF;" d="M739.736,588.959c0-3.731,0.065-7.463-0.027-11.194
				c-0.053-2.173,0.846-3.767,2.475-5.046c2.021-1.586,4.356-2.513,6.827-3.094c6.857-1.61,13.637-1.481,20.225,1.195
				c1.385,0.563,2.672,1.457,3.859,2.386c1.354,1.063,1.962,2.548,1.953,4.338c-0.036,7.619-0.038,15.236,0.005,22.855
				c0.007,1.827-0.674,3.252-1.982,4.438c-1.502,1.358-3.272,2.263-5.183,2.871c-7.253,2.311-14.511,2.331-21.673-0.281
				c-1.68-0.612-3.231-1.706-4.68-2.794c-1.293-0.965-1.832-2.425-1.813-4.104C739.766,596.672,739.737,592.815,739.736,588.959z
				 M758.016,582.74c1.041-0.09,2.785-0.167,4.501-0.419c1.378-0.206,2.744-0.55,4.075-0.96c1.759-0.542,3.447-1.279,4.813-2.567
				c1.319-1.25,1.394-2.441,0.03-3.569c-1.037-0.855-2.215-1.656-3.465-2.118c-6.995-2.603-14.061-2.592-21.06-0.048
				c-1.412,0.51-2.701,1.504-3.875,2.483c-0.973,0.811-0.952,1.892-0.058,2.796c0.75,0.758,1.639,1.448,2.587,1.936
				C749.244,582.169,753.246,582.643,758.016,582.74z M742.361,581.682c0,0.936,0.15,1.978-0.03,2.959
				c-0.454,2.479,0.837,3.745,2.891,4.587c0.173,0.069,0.339,0.161,0.51,0.231c6.193,2.566,12.565,2.733,19.035,1.388
				c2.515-0.522,4.906-1.394,6.953-3.011c0.291-0.229,0.639-0.608,0.651-0.931c0.063-1.79,0.03-3.58,0.03-5.236
				C762.401,586.599,752.482,586.611,742.361,581.682z M742.361,589.395c0,0.908,0.155,1.902-0.03,2.827
				c-0.519,2.586,0.904,3.834,2.988,4.713c0.143,0.061,0.281,0.131,0.425,0.191c6.194,2.557,12.568,2.742,19.042,1.384
				c2.418-0.511,4.729-1.344,6.733-2.851c0.351-0.265,0.824-0.667,0.842-1.024c0.087-1.784,0.04-3.571,0.04-5.24
				C762.356,594.33,752.432,594.341,742.361,589.395z M742.363,597.058c0,1.073,0.046,2.243-0.015,3.408
				c-0.059,1.071,0.328,1.939,1.171,2.494c1.211,0.798,2.447,1.636,3.794,2.129c5.331,1.963,10.822,2.081,16.362,1.073
				c2.523-0.459,4.97-1.2,7.041-2.781c0.644-0.494,1.436-1.188,1.546-1.886c0.237-1.489,0.073-3.042,0.073-4.415
				C762.326,602.006,752.404,601.999,742.363,597.058z"/>
			<path style="fill-rule:evenodd;clip-rule:evenodd;fill:#C11E1E;" d="M758.016,582.74c-4.77-0.098-8.771-0.571-12.451-2.467
				c-0.948-0.487-1.837-1.178-2.587-1.936c-0.895-0.904-0.915-1.985,0.058-2.796c1.174-0.979,2.463-1.974,3.875-2.483
				c6.999-2.544,14.064-2.555,21.06,0.048c1.25,0.462,2.428,1.263,3.465,2.118c1.363,1.128,1.289,2.319-0.03,3.569
				c-1.365,1.288-3.054,2.025-4.813,2.567c-1.331,0.41-2.697,0.754-4.075,0.96C760.801,582.573,759.057,582.65,758.016,582.74z"/>
			<path style="fill-rule:evenodd;clip-rule:evenodd;fill:#C11E1E;" d="M742.361,581.682c10.121,4.93,20.04,4.917,30.04-0.013
				c0,1.656,0.032,3.446-0.03,5.236c-0.013,0.322-0.36,0.702-0.651,0.931c-2.047,1.617-4.438,2.488-6.953,3.011
				c-6.47,1.346-12.842,1.179-19.035-1.388c-0.171-0.07-0.337-0.162-0.51-0.231c-2.054-0.842-3.345-2.108-2.891-4.587
				C742.512,583.659,742.361,582.617,742.361,581.682z M769.957,585.099c-0.513,0.223-1,0.515-1.527,0.647
				c-0.994,0.255-1.051,0.858-0.797,1.669C769.881,587.009,770.287,586.611,769.957,585.099z"/>
			<path style="fill-rule:evenodd;clip-rule:evenodd;fill:#C11E1E;" d="M742.361,589.395c10.07,4.946,19.995,4.936,30.04,0
				c0,1.669,0.047,3.456-0.04,5.24c-0.018,0.357-0.491,0.76-0.842,1.024c-2.004,1.507-4.315,2.34-6.733,2.851
				c-6.474,1.358-12.848,1.173-19.042-1.384c-0.144-0.061-0.282-0.131-0.425-0.191c-2.084-0.879-3.507-2.127-2.988-4.713
				C742.517,591.297,742.361,590.303,742.361,589.395z M769.996,592.729c-0.578,0.252-1.066,0.528-1.59,0.683
				c-0.948,0.275-1.043,0.856-0.766,1.663C769.802,594.701,770.205,594.315,769.996,592.729z"/>
			<path style="fill-rule:evenodd;clip-rule:evenodd;fill:#C11E1E;" d="M742.363,597.058c10.041,4.941,19.963,4.948,29.973,0.022
				c0,1.373,0.164,2.926-0.073,4.415c-0.11,0.698-0.902,1.392-1.546,1.886c-2.071,1.581-4.518,2.322-7.041,2.781
				c-5.54,1.008-11.031,0.89-16.362-1.073c-1.347-0.493-2.583-1.331-3.794-2.129c-0.843-0.555-1.229-1.423-1.171-2.494
				C742.409,599.301,742.363,598.131,742.363,597.058z M770.02,600.453c-0.574,0.25-1.061,0.531-1.585,0.676
				c-0.946,0.258-1.083,0.839-0.816,1.66C769.598,602.539,770.163,602.022,770.02,600.453z"/>
			<path style="fill-rule:evenodd;clip-rule:evenodd;fill:#FFFFFF;" d="M769.957,585.099c0.33,1.513-0.076,1.91-2.324,2.316
				c-0.254-0.811-0.197-1.414,0.797-1.669C768.957,585.613,769.444,585.321,769.957,585.099z"/>
			<path style="fill-rule:evenodd;clip-rule:evenodd;fill:#FFFFFF;" d="M769.996,592.729c0.209,1.587-0.194,1.973-2.355,2.346
				c-0.277-0.807-0.183-1.388,0.766-1.663C768.93,593.257,769.418,592.98,769.996,592.729z"/>
			<path style="fill-rule:evenodd;clip-rule:evenodd;fill:#FFFFFF;" d="M770.02,600.453c0.144,1.569-0.422,2.086-2.401,2.336
				c-0.267-0.821-0.13-1.402,0.816-1.66C768.959,600.984,769.445,600.703,770.02,600.453z"/>
		</g>
		<g>
			<path style="fill-rule:evenodd;clip-rule:evenodd;fill:#FFFFFF;" d="M739.737,482.124c0-3.945,0.069-7.892-0.028-11.834
				c-0.056-2.299,0.892-3.983,2.617-5.335c2.135-1.676,4.604-2.656,7.217-3.27c7.248-1.704,14.415-1.567,21.379,1.263
				c1.465,0.595,2.827,1.54,4.08,2.521c1.434,1.124,2.075,2.695,2.068,4.586c-0.04,8.054-0.043,16.108,0.002,24.163
				c0.009,1.93-0.712,3.437-2.095,4.689c-1.588,1.436-3.459,2.393-5.479,3.037c-7.666,2.442-15.339,2.464-22.913-0.298
				c-1.774-0.646-3.415-1.803-4.948-2.952c-1.364-1.023-1.935-2.566-1.915-4.34C739.771,490.276,739.739,486.2,739.737,482.124z
				 M759.062,475.55c1.104-0.098,2.946-0.178,4.76-0.446c1.455-0.215,2.9-0.58,4.307-1.014c1.86-0.575,3.646-1.351,5.089-2.714
				c1.396-1.32,1.474-2.58,0.031-3.77c-1.095-0.906-2.342-1.751-3.664-2.243c-7.394-2.75-14.859-2.739-22.262-0.051
				c-1.494,0.542-2.855,1.594-4.098,2.627c-1.027,0.856-1.008,2-0.061,2.958c0.793,0.8,1.734,1.527,2.734,2.042
				C749.791,474.943,754.02,475.445,759.062,475.55z M742.512,474.428c0,0.991,0.161,2.092-0.029,3.128
				c-0.481,2.62,0.884,3.96,3.055,4.85c0.182,0.074,0.357,0.169,0.539,0.244c6.544,2.712,13.282,2.89,20.121,1.468
				c2.66-0.552,5.189-1.474,7.354-3.182c0.307-0.243,0.676-0.646,0.688-0.985c0.067-1.891,0.032-3.784,0.032-5.534
				C763.698,479.627,753.214,479.638,742.512,474.428z M742.512,482.584c0,0.959,0.164,2.01-0.029,2.986
				c-0.552,2.735,0.954,4.054,3.158,4.983c0.15,0.064,0.298,0.141,0.45,0.202c6.547,2.703,13.286,2.9,20.129,1.463
				c2.555-0.538,4.999-1.421,7.12-3.013c0.368-0.279,0.869-0.704,0.888-1.083c0.093-1.884,0.043-3.774,0.043-5.541
				C763.652,487.801,753.158,487.812,742.512,482.584z M742.514,490.683c0,1.134,0.05,2.372-0.016,3.602
				c-0.06,1.135,0.35,2.053,1.239,2.639c1.281,0.842,2.588,1.731,4.01,2.253c5.639,2.074,11.442,2.199,17.298,1.132
				c2.67-0.485,5.254-1.269,7.444-2.941c0.681-0.519,1.517-1.253,1.634-1.992c0.251-1.575,0.077-3.216,0.077-4.667
				C763.619,495.915,753.129,495.907,742.514,490.683z"/>
			<path style="fill-rule:evenodd;clip-rule:evenodd;fill:#C11E1E;" d="M759.062,475.55c-5.042-0.105-9.271-0.607-13.163-2.612
				c-1-0.515-1.941-1.243-2.734-2.042c-0.947-0.957-0.967-2.102,0.061-2.958c1.242-1.033,2.604-2.084,4.098-2.627
				c7.402-2.688,14.868-2.699,22.262,0.051c1.322,0.491,2.569,1.336,3.664,2.243c1.442,1.19,1.364,2.45-0.031,3.77
				c-1.443,1.363-3.229,2.14-5.089,2.714c-1.406,0.434-2.852,0.799-4.307,1.014C762.008,475.372,760.165,475.452,759.062,475.55z"/>
			<path style="fill-rule:evenodd;clip-rule:evenodd;fill:#C11E1E;" d="M742.512,474.428c10.702,5.21,21.187,5.199,31.759-0.011
				c0,1.75,0.035,3.643-0.032,5.534c-0.012,0.339-0.381,0.742-0.688,0.985c-2.164,1.708-4.693,2.63-7.354,3.182
				c-6.839,1.422-13.577,1.244-20.121-1.468c-0.182-0.075-0.357-0.17-0.539-0.244c-2.171-0.89-3.536-2.23-3.055-4.85
				C742.673,476.521,742.512,475.419,742.512,474.428z M771.687,478.041c-0.544,0.236-1.058,0.543-1.614,0.684
				c-1.053,0.269-1.113,0.909-0.842,1.766C771.606,480.061,772.035,479.641,771.687,478.041z"/>
			<path style="fill-rule:evenodd;clip-rule:evenodd;fill:#C11E1E;" d="M742.512,482.584c10.646,5.228,21.141,5.216,31.759-0.003
				c0,1.766,0.05,3.656-0.043,5.541c-0.019,0.379-0.52,0.804-0.888,1.083c-2.121,1.592-4.565,2.476-7.12,3.013
				c-6.843,1.437-13.582,1.24-20.129-1.463c-0.152-0.061-0.3-0.138-0.45-0.202c-2.204-0.93-3.71-2.248-3.158-4.983
				C742.676,484.594,742.512,483.544,742.512,482.584z M771.729,486.106c-0.613,0.268-1.13,0.562-1.682,0.722
				c-1.002,0.292-1.104,0.907-0.813,1.759C771.522,488.191,771.948,487.785,771.729,486.106z"/>
			<path style="fill-rule:evenodd;clip-rule:evenodd;fill:#C11E1E;" d="M742.514,490.683c10.615,5.224,21.105,5.232,31.687,0.025
				c0,1.452,0.174,3.093-0.077,4.667c-0.117,0.739-0.953,1.474-1.634,1.992c-2.19,1.672-4.774,2.456-7.444,2.941
				c-5.855,1.067-11.659,0.942-17.298-1.132c-1.422-0.522-2.729-1.411-4.01-2.253c-0.89-0.585-1.299-1.504-1.239-2.639
				C742.563,493.054,742.514,491.817,742.514,490.683z M771.752,494.274c-0.607,0.265-1.122,0.562-1.675,0.712
				c-0.999,0.275-1.144,0.889-0.862,1.757C771.309,496.478,771.904,495.931,771.752,494.274z"/>
			<path style="fill-rule:evenodd;clip-rule:evenodd;fill:#FFFFFF;" d="M771.687,478.041c0.349,1.6-0.08,2.02-2.456,2.45
				c-0.271-0.857-0.211-1.498,0.842-1.766C770.629,478.584,771.143,478.277,771.687,478.041z"/>
			<path style="fill-rule:evenodd;clip-rule:evenodd;fill:#FFFFFF;" d="M771.729,486.106c0.219,1.679-0.207,2.085-2.494,2.481
				c-0.292-0.852-0.189-1.466,0.813-1.759C770.6,486.668,771.116,486.374,771.729,486.106z"/>
			<path style="fill-rule:evenodd;clip-rule:evenodd;fill:#FFFFFF;" d="M771.752,494.274c0.152,1.657-0.443,2.204-2.537,2.469
				c-0.281-0.868-0.137-1.481,0.862-1.757C770.63,494.836,771.145,494.54,771.752,494.274z"/>
		</g>
		<g>
			<path style="fill-rule:evenodd;clip-rule:evenodd;fill:#FFFFFF;" d="M739.736,379.307c0-3.774,0.066-7.55-0.027-11.322
				c-0.053-2.199,0.854-3.811,2.503-5.104c2.044-1.603,4.409-2.539,6.903-3.127c6.936-1.63,13.792-1.5,20.454,1.208
				c1.4,0.57,2.704,1.473,3.904,2.413c1.369,1.074,1.983,2.579,1.977,4.387c-0.038,7.705-0.042,15.41,0.002,23.115
				c0.011,1.847-0.681,3.289-2.004,4.486c-1.52,1.375-3.31,2.291-5.242,2.905c-7.333,2.337-14.674,2.357-21.918-0.283
				c-1.698-0.62-3.269-1.726-4.732-2.826c-1.306-0.979-1.853-2.454-1.833-4.152C739.766,387.106,739.737,383.206,739.736,379.307z
				 M758.223,373.018c1.056-0.093,2.817-0.171,4.554-0.426c1.392-0.206,2.774-0.556,4.12-0.972c1.778-0.548,3.488-1.292,4.868-2.597
				c1.333-1.263,1.408-2.467,0.03-3.607c-1.048-0.867-2.242-1.675-3.506-2.145c-7.074-2.63-14.216-2.62-21.297-0.049
				c-1.429,0.519-2.732,1.524-3.92,2.513c-0.982,0.819-0.963,1.915-0.059,2.828c0.76,0.767,1.659,1.463,2.616,1.957
				C749.354,372.438,753.401,372.918,758.223,373.018z M742.392,371.945c0,0.948,0.151,2.001-0.029,2.993
				c-0.46,2.507,0.847,3.789,2.923,4.64c0.174,0.071,0.342,0.161,0.514,0.234c6.263,2.593,12.708,2.764,19.251,1.403
				c2.543-0.529,4.963-1.409,7.033-3.043c0.294-0.232,0.646-0.619,0.656-0.944c0.065-1.808,0.032-3.62,0.032-5.293
				C762.659,376.918,752.628,376.929,742.392,371.945z M742.392,379.747c0,0.918,0.157,1.924-0.029,2.857
				c-0.527,2.617,0.912,3.877,3.021,4.767c0.145,0.061,0.285,0.134,0.43,0.194c6.265,2.585,12.712,2.773,19.258,1.398
				c2.446-0.515,4.783-1.359,6.81-2.882c0.354-0.268,0.834-0.675,0.854-1.037c0.087-1.802,0.038-3.611,0.038-5.3
				C762.614,384.738,752.575,384.749,742.392,379.747z M742.393,387.496c0,1.084,0.049,2.268-0.015,3.445
				c-0.058,1.084,0.333,1.965,1.185,2.524c1.225,0.806,2.475,1.655,3.836,2.156c5.392,1.983,10.945,2.103,16.549,1.083
				c2.553-0.465,5.025-1.214,7.12-2.814c0.65-0.497,1.451-1.199,1.563-1.906c0.241-1.506,0.074-3.075,0.074-4.465
				C762.583,392.5,752.547,392.492,742.393,387.496z"/>
			<path style="fill-rule:evenodd;clip-rule:evenodd;fill:#C11E1E;" d="M758.223,373.018c-4.821-0.1-8.869-0.579-12.593-2.498
				c-0.957-0.493-1.856-1.189-2.616-1.957c-0.904-0.913-0.924-2.009,0.059-2.828c1.188-0.989,2.491-1.994,3.92-2.513
				c7.081-2.571,14.223-2.581,21.297,0.049c1.264,0.47,2.458,1.278,3.506,2.145c1.378,1.14,1.303,2.344-0.03,3.607
				c-1.38,1.305-3.09,2.049-4.868,2.597c-1.346,0.416-2.729,0.766-4.12,0.972C761.04,372.847,759.278,372.925,758.223,373.018z"/>
			<path style="fill-rule:evenodd;clip-rule:evenodd;fill:#C11E1E;" d="M742.392,371.945c10.236,4.984,20.268,4.973,30.38-0.01
				c0,1.673,0.033,3.485-0.032,5.293c-0.011,0.325-0.362,0.711-0.656,0.944c-2.07,1.634-4.49,2.514-7.033,3.043
				c-6.543,1.361-12.988,1.19-19.251-1.403c-0.172-0.073-0.34-0.163-0.514-0.234c-2.076-0.851-3.383-2.133-2.923-4.64
				C742.543,373.946,742.392,372.893,742.392,371.945z M770.3,375.401c-0.52,0.227-1.011,0.521-1.543,0.656
				c-1.008,0.256-1.064,0.869-0.806,1.688C770.222,377.333,770.633,376.932,770.3,375.401z"/>
			<path style="fill-rule:evenodd;clip-rule:evenodd;fill:#C11E1E;" d="M742.392,379.747c10.184,5.002,20.223,4.991,30.38-0.002
				c0,1.689,0.049,3.498-0.038,5.3c-0.02,0.361-0.499,0.769-0.854,1.037c-2.026,1.523-4.363,2.368-6.81,2.882
				c-6.546,1.375-12.993,1.187-19.258-1.398c-0.145-0.06-0.285-0.134-0.43-0.194c-2.108-0.889-3.548-2.149-3.021-4.767
				C742.549,381.671,742.392,380.665,742.392,379.747z M770.341,383.117c-0.585,0.257-1.078,0.538-1.608,0.691
				c-0.958,0.279-1.056,0.868-0.776,1.682C770.144,385.111,770.55,384.723,770.341,383.117z"/>
			<path style="fill-rule:evenodd;clip-rule:evenodd;fill:#C11E1E;" d="M742.393,387.496c10.154,4.996,20.19,5.003,30.313,0.023
				c0,1.39,0.167,2.959-0.074,4.465c-0.112,0.707-0.913,1.41-1.563,1.906c-2.095,1.601-4.567,2.349-7.12,2.814
				c-5.604,1.02-11.157,0.899-16.549-1.083c-1.361-0.501-2.611-1.35-3.836-2.156c-0.852-0.559-1.242-1.44-1.185-2.524
				C742.441,389.764,742.393,388.58,742.393,387.496z M770.363,390.932c-0.581,0.252-1.074,0.535-1.604,0.681
				c-0.956,0.263-1.093,0.85-0.822,1.68C769.938,393.04,770.51,392.516,770.363,390.932z"/>
			<path style="fill-rule:evenodd;clip-rule:evenodd;fill:#FFFFFF;" d="M770.3,375.401c0.333,1.531-0.078,1.932-2.349,2.343
				c-0.259-0.818-0.202-1.431,0.806-1.688C769.289,375.922,769.78,375.628,770.3,375.401z"/>
			<path style="fill-rule:evenodd;clip-rule:evenodd;fill:#FFFFFF;" d="M770.341,383.117c0.209,1.606-0.197,1.995-2.385,2.373
				c-0.279-0.814-0.182-1.403,0.776-1.682C769.263,383.654,769.756,383.374,770.341,383.117z"/>
			<path style="fill-rule:evenodd;clip-rule:evenodd;fill:#FFFFFF;" d="M770.363,390.932c0.146,1.584-0.425,2.108-2.427,2.361
				c-0.271-0.83-0.134-1.417,0.822-1.68C769.289,391.467,769.782,391.184,770.363,390.932z"/>
		</g>
		<g>
			<path style="fill-rule:evenodd;clip-rule:evenodd;fill:#FFFFFF;" d="M328.925,380.009c-0.001-3.646,0.065-7.294-0.026-10.938
				c-0.052-2.124,0.825-3.68,2.418-4.931c1.975-1.548,4.256-2.453,6.669-3.02c6.699-1.576,13.323-1.449,19.759,1.167
				c1.353,0.549,2.612,1.422,3.771,2.33c1.325,1.039,1.918,2.49,1.91,4.238c-0.037,7.444-0.04,14.887,0.002,22.332
				c0.009,1.783-0.658,3.176-1.937,4.333c-1.467,1.329-3.196,2.212-5.063,2.807c-7.084,2.256-14.176,2.278-21.174-0.274
				c-1.643-0.599-3.156-1.667-4.573-2.729c-1.261-0.945-1.789-2.371-1.77-4.011C328.956,387.543,328.927,383.775,328.925,380.009z
				 M346.785,373.934c1.019-0.09,2.722-0.165,4.398-0.412c1.346-0.199,2.681-0.537,3.981-0.938c1.718-0.529,3.369-1.248,4.702-2.509
				c1.289-1.219,1.36-2.383,0.029-3.483c-1.012-0.838-2.165-1.618-3.386-2.072c-6.834-2.542-13.736-2.531-20.576-0.047
				c-1.379,0.501-2.639,1.472-3.786,2.428c-0.949,0.792-0.93,1.849-0.057,2.732c0.734,0.74,1.604,1.412,2.529,1.891
				C338.216,373.374,342.125,373.836,346.785,373.934z M331.489,372.896c0,0.916,0.148,1.934-0.028,2.892
				c-0.444,2.421,0.818,3.66,2.824,4.481c0.168,0.069,0.33,0.157,0.498,0.227c6.049,2.507,12.276,2.67,18.598,1.356
				c2.457-0.51,4.793-1.361,6.793-2.941c0.284-0.224,0.625-0.598,0.637-0.911c0.061-1.747,0.029-3.496,0.029-5.113
				C351.071,377.702,341.379,377.712,331.489,372.896z M331.489,380.435c0,0.887,0.153,1.857-0.028,2.76
				c-0.507,2.528,0.883,3.746,2.919,4.605c0.14,0.059,0.274,0.129,0.416,0.187c6.052,2.498,12.28,2.679,18.604,1.351
				c2.362-0.496,4.621-1.313,6.579-2.785c0.343-0.257,0.805-0.65,0.822-1c0.085-1.742,0.039-3.488,0.039-5.12
				C351.026,385.255,341.33,385.266,331.489,380.435z M331.491,387.92c0,1.047,0.047,2.19-0.014,3.328
				c-0.056,1.047,0.323,1.898,1.145,2.438c1.185,0.778,2.391,1.599,3.706,2.082c5.209,1.916,10.574,2.032,15.986,1.046
				c2.466-0.449,4.856-1.172,6.88-2.718c0.627-0.479,1.401-1.159,1.51-1.842c0.232-1.456,0.07-2.971,0.07-4.313
				C350.997,392.753,341.302,392.747,331.491,387.92z"/>
			<path style="fill-rule:evenodd;clip-rule:evenodd;fill:#C11E1E;" d="M346.785,373.934c-4.66-0.098-8.569-0.56-12.165-2.412
				c-0.925-0.479-1.794-1.15-2.529-1.891c-0.874-0.883-0.893-1.94,0.057-2.732c1.147-0.956,2.407-1.927,3.786-2.428
				c6.84-2.484,13.741-2.494,20.576,0.047c1.221,0.454,2.374,1.234,3.386,2.072c1.331,1.101,1.26,2.264-0.029,3.483
				c-1.333,1.261-2.984,1.98-4.702,2.509c-1.3,0.402-2.635,0.739-3.981,0.938C349.506,373.769,347.804,373.844,346.785,373.934z"/>
			<path style="fill-rule:evenodd;clip-rule:evenodd;fill:#C11E1E;" d="M331.489,372.896c9.89,4.816,19.582,4.805,29.35-0.009
				c0,1.617,0.032,3.367-0.029,5.113c-0.012,0.313-0.353,0.688-0.637,0.911c-2,1.58-4.336,2.431-6.793,2.941
				c-6.322,1.314-12.549,1.15-18.598-1.356c-0.168-0.07-0.33-0.157-0.498-0.227c-2.006-0.821-3.269-2.06-2.824-4.481
				C331.637,374.83,331.489,373.812,331.489,372.896z M358.453,376.235c-0.504,0.22-0.979,0.503-1.494,0.634
				c-0.973,0.248-1.027,0.839-0.778,1.631C358.377,378.102,358.774,377.714,358.453,376.235z"/>
			<path style="fill-rule:evenodd;clip-rule:evenodd;fill:#C11E1E;" d="M331.489,380.435c9.84,4.832,19.537,4.821,29.351-0.002
				c0,1.632,0.046,3.378-0.039,5.12c-0.017,0.35-0.479,0.743-0.822,1c-1.958,1.472-4.216,2.289-6.579,2.785
				c-6.324,1.329-12.552,1.147-18.604-1.351c-0.141-0.058-0.276-0.128-0.416-0.187c-2.037-0.859-3.427-2.077-2.919-4.605
				C331.642,382.292,331.489,381.322,331.489,380.435z M358.491,383.689c-0.566,0.249-1.042,0.52-1.554,0.668
				c-0.926,0.269-1.02,0.839-0.75,1.625C358.3,385.617,358.693,385.241,358.491,383.689z"/>
			<path style="fill-rule:evenodd;clip-rule:evenodd;fill:#C11E1E;" d="M331.491,387.92c9.812,4.827,19.506,4.833,29.284,0.022
				c0,1.342,0.162,2.857-0.07,4.313c-0.109,0.683-0.883,1.362-1.51,1.842c-2.024,1.546-4.414,2.269-6.88,2.718
				c-5.412,0.985-10.777,0.87-15.986-1.046c-1.315-0.483-2.521-1.304-3.706-2.082c-0.822-0.541-1.2-1.392-1.145-2.438
				C331.538,390.11,331.491,388.967,331.491,387.92z M358.514,391.238c-0.563,0.245-1.038,0.518-1.549,0.659
				c-0.926,0.254-1.059,0.821-0.797,1.624C358.101,393.276,358.654,392.769,358.514,391.238z"/>
			<path style="fill-rule:evenodd;clip-rule:evenodd;fill:#FFFFFF;" d="M358.453,376.235c0.321,1.479-0.076,1.867-2.271,2.265
				c-0.25-0.792-0.195-1.383,0.778-1.631C357.474,376.738,357.949,376.455,358.453,376.235z"/>
			<path style="fill-rule:evenodd;clip-rule:evenodd;fill:#FFFFFF;" d="M358.491,383.689c0.203,1.552-0.191,1.928-2.304,2.293
				c-0.27-0.787-0.176-1.356,0.75-1.625C357.448,384.208,357.924,383.938,358.491,383.689z"/>
			<path style="fill-rule:evenodd;clip-rule:evenodd;fill:#FFFFFF;" d="M358.514,391.238c0.14,1.531-0.413,2.038-2.346,2.282
				c-0.262-0.802-0.129-1.37,0.797-1.624C357.476,391.756,357.951,391.483,358.514,391.238z"/>
		</g>
		<g>
			<path style="fill-rule:evenodd;clip-rule:evenodd;fill:#FFFFFF;" d="M417.6,495.986c0-3.289,0.058-6.579-0.022-9.868
				c-0.047-1.917,0.743-3.321,2.18-4.448c1.782-1.397,3.84-2.213,6.018-2.725c6.043-1.421,12.02-1.307,17.826,1.052
				c1.22,0.497,2.356,1.284,3.402,2.103c1.194,0.936,1.73,2.247,1.723,3.823c-0.033,6.716-0.036,13.432,0.002,20.147
				c0.008,1.61-0.594,2.867-1.748,3.91c-1.323,1.198-2.884,1.997-4.567,2.532c-6.392,2.036-12.79,2.055-19.104-0.247
				c-1.481-0.541-2.848-1.504-4.125-2.462c-1.138-0.853-1.614-2.139-1.597-3.619C417.627,502.784,417.601,499.385,417.6,495.986z
				 M433.713,490.505c0.918-0.081,2.454-0.149,3.968-0.372c1.213-0.179,2.418-0.484,3.591-0.846c1.55-0.478,3.039-1.126,4.242-2.263
				c1.163-1.102,1.227-2.151,0.026-3.144c-0.913-0.756-1.954-1.46-3.055-1.871c-6.166-2.292-12.392-2.283-18.562-0.042
				c-1.246,0.453-2.381,1.329-3.417,2.19c-0.857,0.714-0.84,1.668-0.051,2.465c0.663,0.668,1.447,1.274,2.282,1.705
				C425.981,490,429.509,490.417,433.713,490.505z M419.913,489.571c0,0.825,0.133,1.744-0.026,2.608
				c-0.401,2.185,0.739,3.302,2.547,4.043c0.153,0.063,0.297,0.141,0.45,0.204c5.458,2.261,11.075,2.409,16.779,1.224
				c2.217-0.461,4.325-1.229,6.129-2.653c0.256-0.203,0.563-0.539,0.573-0.823c0.056-1.576,0.027-3.155,0.027-4.613
				C437.579,493.905,428.835,493.914,419.913,489.571z M419.913,496.371c0,0.8,0.138,1.676-0.026,2.49
				c-0.458,2.281,0.797,3.379,2.634,4.154c0.126,0.054,0.249,0.118,0.375,0.168c5.459,2.254,11.079,2.418,16.784,1.22
				c2.131-0.448,4.169-1.185,5.936-2.512c0.31-0.233,0.727-0.587,0.743-0.903c0.076-1.571,0.034-3.147,0.034-4.619
				C437.54,500.72,428.791,500.73,419.913,496.371z M419.915,503.124c0,0.944,0.042,1.977-0.013,3.003
				c-0.05,0.944,0.291,1.712,1.033,2.2c1.068,0.702,2.158,1.443,3.344,1.879c4.699,1.728,9.54,1.832,14.423,0.943
				c2.225-0.405,4.381-1.058,6.207-2.453c0.566-0.431,1.265-1.044,1.362-1.66c0.21-1.313,0.064-2.681,0.064-3.892
				C437.513,507.485,428.766,507.479,419.915,503.124z"/>
			<path style="fill-rule:evenodd;clip-rule:evenodd;fill:#C11E1E;" d="M433.713,490.505c-4.204-0.088-7.732-0.505-10.975-2.177
				c-0.835-0.43-1.619-1.036-2.282-1.705c-0.789-0.797-0.806-1.751,0.051-2.465c1.035-0.861,2.171-1.737,3.417-2.19
				c6.17-2.241,12.396-2.249,18.562,0.042c1.101,0.411,2.142,1.114,3.055,1.871c1.2,0.993,1.137,2.042-0.026,3.144
				c-1.203,1.136-2.692,1.785-4.242,2.263c-1.173,0.362-2.378,0.667-3.591,0.846C436.167,490.356,434.631,490.424,433.713,490.505z"
				/>
			<path style="fill-rule:evenodd;clip-rule:evenodd;fill:#C11E1E;" d="M419.913,489.571c8.922,4.343,17.666,4.334,26.479-0.009
				c0,1.458,0.029,3.037-0.027,4.613c-0.011,0.284-0.317,0.62-0.573,0.823c-1.804,1.424-3.913,2.192-6.129,2.653
				c-5.704,1.185-11.321,1.037-16.779-1.224c-0.152-0.063-0.297-0.141-0.45-0.204c-1.809-0.741-2.949-1.858-2.547-4.043
				C420.046,491.314,419.913,490.396,419.913,489.571z M444.238,492.582c-0.453,0.199-0.881,0.455-1.346,0.572
				c-0.878,0.223-0.927,0.757-0.702,1.471C444.171,494.266,444.529,493.917,444.238,492.582z"/>
			<path style="fill-rule:evenodd;clip-rule:evenodd;fill:#C11E1E;" d="M419.913,496.371c8.877,4.359,17.626,4.349,26.479-0.001
				c0,1.472,0.042,3.048-0.034,4.619c-0.016,0.315-0.433,0.67-0.743,0.903c-1.766,1.327-3.804,2.064-5.936,2.512
				c-5.705,1.198-11.325,1.035-16.784-1.22c-0.127-0.051-0.25-0.115-0.375-0.168c-1.837-0.775-3.092-1.874-2.634-4.154
				C420.051,498.046,419.913,497.171,419.913,496.371z M444.273,499.308c-0.51,0.224-0.939,0.468-1.401,0.602
				c-0.835,0.243-0.92,0.757-0.676,1.467C444.101,501.046,444.457,500.707,444.273,499.308z"/>
			<path style="fill-rule:evenodd;clip-rule:evenodd;fill:#C11E1E;" d="M419.915,503.124c8.852,4.354,17.598,4.361,26.42,0.02
				c0,1.211,0.146,2.58-0.064,3.892c-0.098,0.616-0.796,1.229-1.362,1.66c-1.826,1.396-3.982,2.048-6.207,2.453
				c-4.883,0.889-9.724,0.785-14.423-0.943c-1.186-0.437-2.276-1.178-3.344-1.879c-0.742-0.487-1.083-1.255-1.033-2.2
				C419.957,505.101,419.915,504.068,419.915,503.124z M444.294,506.118c-0.507,0.22-0.936,0.467-1.396,0.594
				c-0.835,0.229-0.955,0.741-0.719,1.464C443.922,507.956,444.42,507.5,444.294,506.118z"/>
			<path style="fill-rule:evenodd;clip-rule:evenodd;fill:#FFFFFF;" d="M444.238,492.582c0.291,1.334-0.067,1.684-2.047,2.043
				c-0.225-0.714-0.176-1.249,0.702-1.471C443.357,493.037,443.786,492.781,444.238,492.582z"/>
			<path style="fill-rule:evenodd;clip-rule:evenodd;fill:#FFFFFF;" d="M444.273,499.308c0.184,1.399-0.172,1.739-2.077,2.069
				c-0.244-0.71-0.16-1.224,0.676-1.467C443.333,499.775,443.763,499.531,444.273,499.308z"/>
			<path style="fill-rule:evenodd;clip-rule:evenodd;fill:#FFFFFF;" d="M444.294,506.118c0.126,1.382-0.372,1.838-2.116,2.059
				c-0.235-0.724-0.116-1.235,0.719-1.464C443.358,506.585,443.787,506.338,444.294,506.118z"/>
		</g>
		<g>
			<path style="fill-rule:evenodd;clip-rule:evenodd;fill:#FFFFFF;" d="M324.958,481.145c0-4.06,0.072-8.122-0.027-12.178
				c-0.058-2.365,0.917-4.098,2.691-5.49c2.199-1.724,4.74-2.73,7.427-3.362c7.458-1.755,14.833-1.614,22,1.299
				c1.506,0.612,2.907,1.583,4.199,2.594c1.474,1.155,2.136,2.772,2.126,4.718c-0.041,8.288-0.043,16.575,0.003,24.863
				c0.01,1.987-0.733,3.539-2.157,4.827c-1.633,1.479-3.559,2.462-5.636,3.125c-7.888,2.513-15.784,2.537-23.576-0.305
				c-1.828-0.668-3.515-1.855-5.092-3.039c-1.405-1.053-1.993-2.641-1.972-4.468C324.993,489.535,324.959,485.339,324.958,481.145z
				 M344.843,474.38c1.135-0.1,3.03-0.184,4.898-0.458c1.497-0.221,2.985-0.597,4.433-1.044c1.913-0.589,3.75-1.39,5.234-2.793
				c1.436-1.358,1.515-2.654,0.033-3.88c-1.127-0.932-2.411-1.801-3.771-2.307c-7.609-2.829-15.293-2.819-22.907-0.053
				c-1.537,0.558-2.938,1.639-4.217,2.704c-1.057,0.881-1.037,2.059-0.063,3.042c0.818,0.825,1.786,1.574,2.814,2.104
				C335.302,473.757,339.655,474.273,344.843,474.38z M327.813,473.226c0,1.02,0.165,2.153-0.032,3.221
				c-0.494,2.696,0.912,4.075,3.145,4.99c0.188,0.076,0.367,0.174,0.554,0.252c6.736,2.79,13.668,2.974,20.708,1.51
				c2.736-0.568,5.336-1.516,7.564-3.274c0.317-0.251,0.695-0.666,0.708-1.016c0.069-1.944,0.034-3.893,0.034-5.692
				C349.616,478.576,338.824,478.588,327.813,473.226z M327.813,481.619c0,0.988,0.17,2.068-0.032,3.074
				c-0.566,2.813,0.983,4.169,3.251,5.126c0.155,0.066,0.307,0.145,0.463,0.209c6.738,2.78,13.674,2.982,20.714,1.504
				c2.63-0.554,5.145-1.462,7.325-3.1c0.382-0.287,0.896-0.725,0.916-1.114c0.094-1.939,0.043-3.884,0.043-5.701
				C349.566,486.987,338.769,486.999,327.813,481.619z M327.815,489.954c0,1.166,0.053,2.44-0.016,3.706
				c-0.061,1.167,0.36,2.113,1.275,2.716c1.318,0.866,2.664,1.78,4.127,2.318c5.8,2.133,11.773,2.262,17.799,1.166
				c2.747-0.5,5.407-1.305,7.661-3.026c0.699-0.533,1.561-1.291,1.683-2.05c0.258-1.62,0.078-3.309,0.078-4.803
				C349.533,495.336,338.738,495.329,327.815,489.954z"/>
			<path style="fill-rule:evenodd;clip-rule:evenodd;fill:#C11E1E;" d="M344.843,474.38c-5.188-0.107-9.541-0.623-13.544-2.686
				c-1.028-0.531-1.997-1.28-2.814-2.104c-0.974-0.983-0.995-2.16,0.063-3.042c1.278-1.064,2.68-2.146,4.217-2.704
				c7.614-2.766,15.298-2.776,22.907,0.053c1.36,0.505,2.644,1.375,3.771,2.307c1.482,1.227,1.403,2.522-0.033,3.88
				c-1.484,1.403-3.321,2.204-5.234,2.793c-1.448,0.447-2.936,0.824-4.433,1.044C347.873,474.197,345.978,474.281,344.843,474.38z"
				/>
			<path style="fill-rule:evenodd;clip-rule:evenodd;fill:#C11E1E;" d="M327.813,473.226c11.011,5.362,21.803,5.35,32.68-0.01
				c0,1.8,0.035,3.749-0.034,5.692c-0.012,0.35-0.391,0.764-0.708,1.016c-2.228,1.758-4.828,2.706-7.564,3.274
				c-7.039,1.464-13.972,1.28-20.708-1.51c-0.187-0.078-0.366-0.176-0.554-0.252c-2.233-0.915-3.639-2.294-3.145-4.99
				C327.978,475.379,327.813,474.246,327.813,473.226z M357.834,476.944c-0.56,0.245-1.088,0.56-1.661,0.705
				c-1.083,0.275-1.145,0.934-0.867,1.816C357.75,479.021,358.192,478.59,357.834,476.944z"/>
			<path style="fill-rule:evenodd;clip-rule:evenodd;fill:#C11E1E;" d="M327.813,481.619c10.956,5.38,21.753,5.369,32.68-0.001
				c0,1.817,0.05,3.762-0.043,5.701c-0.019,0.389-0.533,0.827-0.916,1.114c-2.18,1.638-4.695,2.546-7.325,3.1
				c-7.04,1.479-13.976,1.276-20.714-1.504c-0.156-0.064-0.308-0.143-0.463-0.209c-2.268-0.957-3.817-2.313-3.251-5.126
				C327.983,483.687,327.813,482.606,327.813,481.619z M357.877,485.243c-0.63,0.277-1.161,0.578-1.73,0.743
				c-1.031,0.301-1.135,0.934-0.834,1.81C357.665,487.39,358.103,486.971,357.877,485.243z"/>
			<path style="fill-rule:evenodd;clip-rule:evenodd;fill:#C11E1E;" d="M327.815,489.954c10.923,5.375,21.718,5.382,32.605,0.025
				c0,1.494,0.18,3.184-0.078,4.803c-0.122,0.759-0.984,1.517-1.683,2.05c-2.254,1.721-4.914,2.526-7.661,3.026
				c-6.025,1.096-11.999,0.968-17.799-1.166c-1.463-0.538-2.809-1.452-4.127-2.318c-0.915-0.603-1.336-1.549-1.275-2.716
				C327.868,492.394,327.815,491.119,327.815,489.954z M357.902,493.649c-0.626,0.272-1.155,0.577-1.724,0.733
				c-1.031,0.282-1.178,0.913-0.887,1.806C357.444,495.917,358.058,495.353,357.902,493.649z"/>
			<path style="fill-rule:evenodd;clip-rule:evenodd;fill:#FFFFFF;" d="M357.834,476.944c0.358,1.646-0.083,2.078-2.528,2.521
				c-0.277-0.882-0.216-1.541,0.867-1.816C356.746,477.504,357.274,477.188,357.834,476.944z"/>
			<path style="fill-rule:evenodd;clip-rule:evenodd;fill:#FFFFFF;" d="M357.877,485.243c0.226,1.728-0.212,2.146-2.564,2.553
				c-0.301-0.876-0.197-1.509,0.834-1.81C356.716,485.821,357.247,485.52,357.877,485.243z"/>
			<path style="fill-rule:evenodd;clip-rule:evenodd;fill:#FFFFFF;" d="M357.902,493.649c0.156,1.704-0.458,2.269-2.611,2.54
				c-0.292-0.894-0.145-1.524,0.887-1.806C356.748,494.226,357.276,493.921,357.902,493.649z"/>
		</g>
		<g>
			<path style="fill-rule:evenodd;clip-rule:evenodd;fill:#FFFFFF;" d="M414.573,599.641c0-3.292,0.057-6.581-0.023-9.869
				c-0.047-1.917,0.743-3.32,2.18-4.446c1.782-1.399,3.841-2.214,6.018-2.727c6.043-1.421,12.02-1.309,17.827,1.052
				c1.22,0.498,2.355,1.283,3.402,2.104c1.194,0.936,1.73,2.246,1.723,3.823c-0.033,6.715-0.035,13.43,0.001,20.145
				c0.008,1.61-0.593,2.867-1.746,3.91c-1.324,1.198-2.884,1.996-4.569,2.532c-6.391,2.037-12.789,2.056-19.104-0.246
				c-1.481-0.542-2.848-1.505-4.125-2.463c-1.138-0.853-1.614-2.138-1.596-3.619C414.601,606.438,414.574,603.039,414.573,599.641z
				 M430.685,594.159c0.919-0.081,2.456-0.149,3.969-0.373c1.214-0.179,2.418-0.483,3.591-0.846c1.55-0.477,3.04-1.127,4.242-2.263
				c1.164-1.1,1.228-2.149,0.027-3.144c-0.914-0.759-1.954-1.461-3.056-1.871c-6.166-2.292-12.392-2.283-18.563-0.042
				c-1.245,0.452-2.381,1.33-3.417,2.192c-0.856,0.715-0.839,1.667-0.05,2.462c0.663,0.671,1.447,1.277,2.282,1.707
				C422.955,593.655,426.481,594.072,430.685,594.159z M416.887,593.224c0,0.825,0.132,1.744-0.026,2.606
				c-0.401,2.188,0.739,3.305,2.547,4.046c0.153,0.063,0.298,0.142,0.45,0.204c5.458,2.261,11.076,2.409,16.779,1.224
				c2.216-0.461,4.324-1.228,6.128-2.652c0.256-0.202,0.563-0.54,0.574-0.823c0.056-1.575,0.027-3.154,0.027-4.614
				C434.551,597.56,425.808,597.57,416.887,593.224z M416.887,600.024c0,0.8,0.137,1.675-0.026,2.491
				c-0.458,2.277,0.796,3.378,2.633,4.152c0.127,0.053,0.249,0.117,0.376,0.171c5.459,2.253,11.079,2.417,16.784,1.217
				c2.131-0.448,4.168-1.184,5.936-2.511c0.309-0.232,0.727-0.587,0.742-0.904c0.076-1.57,0.035-3.146,0.035-4.618
				C434.513,604.374,425.764,604.383,416.887,600.024z M416.888,606.778c0,0.944,0.042,1.976-0.013,3.001
				c-0.05,0.945,0.291,1.714,1.033,2.202c1.068,0.702,2.158,1.441,3.344,1.877c4.699,1.729,9.54,1.833,14.422,0.945
				c2.226-0.406,4.381-1.058,6.208-2.452c0.565-0.433,1.264-1.046,1.363-1.662c0.208-1.313,0.064-2.682,0.064-3.892
				C434.486,611.138,425.739,611.133,416.888,606.778z"/>
			<path style="fill-rule:evenodd;clip-rule:evenodd;fill:#C11E1E;" d="M430.685,594.159c-4.204-0.087-7.73-0.504-10.974-2.177
				c-0.834-0.43-1.619-1.036-2.282-1.707c-0.789-0.795-0.806-1.747,0.05-2.462c1.036-0.862,2.172-1.74,3.417-2.192
				c6.17-2.241,12.397-2.25,18.563,0.042c1.102,0.41,2.142,1.112,3.056,1.871c1.201,0.994,1.137,2.044-0.027,3.144
				c-1.203,1.136-2.692,1.786-4.242,2.263c-1.173,0.362-2.377,0.667-3.591,0.846C433.141,594.01,431.604,594.078,430.685,594.159z"
				/>
			<path style="fill-rule:evenodd;clip-rule:evenodd;fill:#C11E1E;" d="M416.887,593.224c8.921,4.347,17.665,4.336,26.479-0.01
				c0,1.46,0.029,3.039-0.027,4.614c-0.01,0.283-0.317,0.621-0.574,0.823c-1.804,1.425-3.913,2.191-6.128,2.652
				c-5.704,1.186-11.321,1.037-16.779-1.224c-0.151-0.063-0.297-0.142-0.45-0.204c-1.809-0.741-2.948-1.858-2.547-4.046
				C417.019,594.968,416.887,594.049,416.887,593.224z M441.211,596.236c-0.453,0.198-0.882,0.454-1.346,0.571
				c-0.878,0.223-0.927,0.756-0.702,1.471C441.144,597.92,441.502,597.57,441.211,596.236z"/>
			<path style="fill-rule:evenodd;clip-rule:evenodd;fill:#C11E1E;" d="M416.887,600.024c8.877,4.358,17.626,4.35,26.479-0.002
				c0,1.473,0.041,3.048-0.035,4.618c-0.015,0.317-0.433,0.672-0.742,0.904c-1.767,1.327-3.805,2.063-5.936,2.511
				c-5.705,1.2-11.324,1.036-16.784-1.217c-0.127-0.054-0.25-0.118-0.376-0.171c-1.837-0.774-3.091-1.875-2.633-4.152
				C417.024,601.699,416.887,600.824,416.887,600.024z M441.247,602.962c-0.51,0.221-0.94,0.467-1.402,0.6
				c-0.835,0.244-0.92,0.759-0.675,1.467C441.074,604.701,441.43,604.359,441.247,602.962z"/>
			<path style="fill-rule:evenodd;clip-rule:evenodd;fill:#C11E1E;" d="M416.888,606.778c8.851,4.354,17.598,4.359,26.42,0.02
				c0,1.21,0.145,2.579-0.064,3.892c-0.099,0.616-0.797,1.229-1.363,1.662c-1.827,1.395-3.982,2.046-6.208,2.452
				c-4.882,0.888-9.723,0.784-14.422-0.945c-1.187-0.436-2.276-1.175-3.344-1.877c-0.742-0.488-1.083-1.257-1.033-2.202
				C416.93,608.754,416.888,607.723,416.888,606.778z M441.267,609.772c-0.507,0.219-0.936,0.467-1.396,0.594
				c-0.835,0.228-0.955,0.74-0.719,1.465C440.896,611.61,441.394,611.154,441.267,609.772z"/>
			<path style="fill-rule:evenodd;clip-rule:evenodd;fill:#FFFFFF;" d="M441.211,596.236c0.291,1.334-0.068,1.684-2.048,2.042
				c-0.225-0.715-0.176-1.248,0.702-1.471C440.33,596.69,440.758,596.435,441.211,596.236z"/>
			<path style="fill-rule:evenodd;clip-rule:evenodd;fill:#FFFFFF;" d="M441.247,602.962c0.183,1.397-0.172,1.739-2.077,2.066
				c-0.245-0.708-0.16-1.223,0.675-1.467C440.307,603.429,440.736,603.183,441.247,602.962z"/>
			<path style="fill-rule:evenodd;clip-rule:evenodd;fill:#FFFFFF;" d="M441.267,609.772c0.127,1.382-0.37,1.838-2.115,2.059
				c-0.236-0.725-0.116-1.237,0.719-1.465C440.331,610.239,440.76,609.991,441.267,609.772z"/>
		</g>
		<g>
			<path style="fill-rule:evenodd;clip-rule:evenodd;fill:#FFFFFF;" d="M325.623,586.542c0-3.743,0.065-7.485-0.026-11.226
				c-0.053-2.179,0.845-3.776,2.481-5.061c2.026-1.587,4.367-2.515,6.843-3.098c6.874-1.617,13.672-1.487,20.277,1.195
				c1.389,0.567,2.68,1.461,3.87,2.393c1.359,1.066,1.969,2.556,1.96,4.348c-0.039,7.641-0.04,15.278,0.002,22.918
				c0.009,1.831-0.675,3.261-1.987,4.446c-1.505,1.364-3.28,2.271-5.195,2.881c-7.27,2.317-14.548,2.338-21.729-0.281
				c-1.685-0.614-3.24-1.71-4.693-2.8c-1.294-0.973-1.836-2.434-1.816-4.117C325.654,594.274,325.625,590.407,325.623,586.542z
				 M343.949,580.307c1.046-0.092,2.793-0.169,4.515-0.423c1.38-0.202,2.751-0.55,4.085-0.961c1.763-0.543,3.457-1.283,4.826-2.577
				c1.321-1.252,1.396-2.443,0.029-3.575c-1.039-0.858-2.222-1.66-3.475-2.125c-7.014-2.606-14.095-2.6-21.114-0.048
				c-1.416,0.513-2.708,1.511-3.886,2.492c-0.974,0.811-0.955,1.897-0.058,2.802c0.754,0.761,1.645,1.452,2.595,1.94
				C335.157,579.733,339.168,580.207,343.949,580.307z M328.254,579.244c0,0.939,0.152,1.983-0.029,2.967
				c-0.457,2.483,0.839,3.757,2.898,4.601c0.173,0.07,0.338,0.158,0.51,0.23c6.208,2.571,12.598,2.74,19.085,1.393
				c2.522-0.525,4.919-1.398,6.971-3.018c0.292-0.233,0.641-0.614,0.653-0.936c0.063-1.791,0.03-3.587,0.03-5.246
				C348.348,584.176,338.402,584.186,328.254,579.244z M328.254,586.979c0,0.911,0.157,1.904-0.029,2.832
				c-0.522,2.594,0.906,3.844,2.995,4.725c0.144,0.061,0.283,0.134,0.427,0.194c6.211,2.563,12.602,2.748,19.091,1.385
				c2.425-0.51,4.742-1.348,6.751-2.858c0.352-0.265,0.827-0.668,0.844-1.026c0.087-1.786,0.04-3.58,0.04-5.253
				C348.304,591.926,338.352,591.938,328.254,586.979z M328.255,594.661c0,1.073,0.049,2.248-0.014,3.415
				c-0.057,1.073,0.331,1.948,1.174,2.502c1.215,0.798,2.455,1.64,3.803,2.138c5.346,1.965,10.852,2.084,16.406,1.073
				c2.531-0.463,4.982-1.202,7.06-2.788c0.644-0.491,1.438-1.191,1.549-1.892c0.238-1.491,0.073-3.05,0.073-4.425
				C348.273,599.62,338.323,599.616,328.255,594.661z"/>
			<path style="fill-rule:evenodd;clip-rule:evenodd;fill:#C11E1E;" d="M343.949,580.307c-4.781-0.1-8.792-0.573-12.482-2.475
				c-0.95-0.488-1.841-1.18-2.595-1.94c-0.897-0.904-0.916-1.991,0.058-2.802c1.178-0.981,2.471-1.979,3.886-2.492
				c7.019-2.552,14.1-2.559,21.114,0.048c1.253,0.465,2.436,1.267,3.475,2.125c1.366,1.132,1.292,2.323-0.029,3.575
				c-1.369,1.294-3.063,2.034-4.826,2.577c-1.334,0.411-2.705,0.759-4.085,0.961C346.743,580.138,344.995,580.215,343.949,580.307z"
				/>
			<path style="fill-rule:evenodd;clip-rule:evenodd;fill:#C11E1E;" d="M328.254,579.244c10.148,4.941,20.094,4.932,30.119-0.009
				c0,1.659,0.033,3.455-0.03,5.246c-0.012,0.321-0.361,0.702-0.653,0.936c-2.052,1.619-4.449,2.492-6.971,3.018
				c-6.487,1.348-12.877,1.179-19.085-1.393c-0.172-0.072-0.337-0.16-0.51-0.23c-2.059-0.844-3.354-2.117-2.898-4.601
				C328.406,581.228,328.254,580.184,328.254,579.244z M355.923,582.669c-0.517,0.226-1.003,0.52-1.531,0.652
				c-0.999,0.252-1.055,0.858-0.798,1.673C355.846,584.584,356.253,584.186,355.923,582.669z"/>
			<path style="fill-rule:evenodd;clip-rule:evenodd;fill:#C11E1E;" d="M328.254,586.979c10.098,4.959,20.05,4.946,30.119-0.002
				c0,1.673,0.047,3.467-0.04,5.253c-0.017,0.358-0.492,0.762-0.844,1.026c-2.009,1.511-4.327,2.349-6.751,2.858
				c-6.489,1.363-12.88,1.178-19.091-1.385c-0.144-0.061-0.283-0.134-0.427-0.194c-2.089-0.881-3.517-2.131-2.995-4.725
				C328.411,588.884,328.254,587.891,328.254,586.979z M355.962,590.317c-0.581,0.257-1.069,0.535-1.595,0.688
				c-0.95,0.275-1.046,0.86-0.769,1.667C355.767,592.299,356.171,591.911,355.962,590.317z"/>
			<path style="fill-rule:evenodd;clip-rule:evenodd;fill:#C11E1E;" d="M328.255,594.661c10.067,4.955,20.018,4.959,30.052,0.023
				c0,1.375,0.165,2.934-0.073,4.425c-0.112,0.7-0.905,1.4-1.549,1.892c-2.078,1.586-4.529,2.325-7.06,2.788
				c-5.555,1.011-11.061,0.892-16.406-1.073c-1.348-0.498-2.588-1.34-3.803-2.138c-0.843-0.554-1.231-1.429-1.174-2.502
				C328.304,596.909,328.255,595.734,328.255,594.661z M355.986,598.065c-0.577,0.25-1.065,0.531-1.59,0.678
				c-0.95,0.26-1.085,0.84-0.817,1.662C355.563,600.157,356.13,599.637,355.986,598.065z"/>
			<path style="fill-rule:evenodd;clip-rule:evenodd;fill:#FFFFFF;" d="M355.923,582.669c0.331,1.517-0.077,1.915-2.33,2.325
				c-0.256-0.814-0.201-1.421,0.798-1.673C354.92,583.188,355.406,582.895,355.923,582.669z"/>
			<path style="fill-rule:evenodd;clip-rule:evenodd;fill:#FFFFFF;" d="M355.962,590.317c0.208,1.594-0.195,1.981-2.363,2.354
				c-0.278-0.807-0.182-1.392,0.769-1.667C354.893,590.853,355.381,590.574,355.962,590.317z"/>
			<path style="fill-rule:evenodd;clip-rule:evenodd;fill:#FFFFFF;" d="M355.986,598.065c0.144,1.571-0.423,2.092-2.407,2.34
				c-0.268-0.822-0.132-1.402,0.817-1.662C354.921,598.597,355.409,598.315,355.986,598.065z"/>
		</g>
	</g>
</g>
</svg>
